<svg xmlns="http://www.w3.org/2000/svg" width="376" height="85" fill="none"><rect width="374.688" height="83.975" x=".676" y=".384" fill="#fff" fill-opacity=".05" rx="8.326"/><rect width="373.855" height="83.142" x="1.092" y=".8" stroke="url(#a)" stroke-opacity=".2" stroke-width=".833" rx="7.91"/><rect width="38.281" height="38.281" x="85.635" y="23.23" fill="#666" fill-opacity=".15" rx="6.96"/><g fill="#fff" clip-path="url(#b)"><path d="M103.031 35.41a1.74 1.74 0 0 1 3.48 0v13.92a1.74 1.74 0 0 1-3.48 0z"/><path d="M96.07 42.37c0-.96.78-1.74 1.74-1.74h13.92a1.74 1.74 0 0 1 0 3.48H97.81c-.96 0-1.74-.779-1.74-1.74"/></g><path fill="#fff" d="M143.966 48.611q-2.1 0-3.58-.74-1.46-.76-2.24-2.34t-.78-4.02q0-3.6 1.74-5.34 1.76-1.76 4.88-1.76 1.72 0 3.08.58 1.38.58 2.16 1.74.8 1.14.8 2.92h-2.28q0-1.1-.46-1.84-.459-.74-1.32-1.12-.84-.38-1.96-.38-1.4 0-2.38.56-.96.54-1.46 1.64-.48 1.1-.48 2.8v.44q0 1.7.48 2.8.5 1.1 1.46 1.64.96.52 2.38.52 1.16 0 2.02-.36.861-.38 1.32-1.12.48-.74.48-1.84h2.2q0 1.78-.8 2.94-.78 1.16-2.16 1.72-1.36.56-3.1.56m8.272-.24v-10.52h1.72l.18 1.7h.12q.18-.5.46-.94.3-.44.76-.72.48-.28 1.16-.28.32 0 .56.06.26.06.4.1v1.96h-.7q-.639 0-1.14.2-.48.2-.82.6a2.5 2.5 0 0 0-.48.94q-.14.56-.14 1.26v5.64zm11.079.24q-1.62 0-2.72-.58-1.08-.6-1.64-1.82t-.56-3.1q0-1.9.56-3.1.56-1.22 1.66-1.8 1.1-.6 2.74-.6 1.5 0 2.5.58 1.02.56 1.54 1.72t.52 2.92v.8h-7.38q.04 1.12.34 1.88.3.74.9 1.1.621.34 1.56.34.58 0 1.04-.14.46-.16.78-.44.32-.3.5-.7.18-.42.18-.94h2.04q0 .94-.32 1.66t-.94 1.22q-.6.48-1.44.74t-1.86.26m-2.74-6.5h5.16q0-.78-.18-1.3a2.14 2.14 0 0 0-.48-.88 1.76 1.76 0 0 0-.76-.48 2.9 2.9 0 0 0-1-.16q-.84 0-1.44.3-.579.3-.9.94-.32.62-.4 1.58m12.114 6.5q-.5 0-1.08-.12a3.4 3.4 0 0 1-1.1-.44 2.5 2.5 0 0 1-.82-.88q-.32-.58-.32-1.5 0-1.08.5-1.78t1.4-1.1 2.14-.56a22 22 0 0 1 2.74-.16v-1.04q0-.52-.18-.92-.16-.4-.62-.62-.44-.22-1.28-.22t-1.32.22q-.459.2-.66.52-.18.3-.18.66v.3h-2a1 1 0 0 1-.02-.2v-.24q0-.94.52-1.58.54-.66 1.5-1t2.22-.34q1.36 0 2.26.4.921.38 1.38 1.1.46.72.46 1.74v5.34q0 .38.18.54.2.16.46.16h.72v1.4q-.24.1-.6.2t-.84.1q-.54 0-.92-.2-.36-.18-.6-.52a2.3 2.3 0 0 1-.3-.8h-.12q-.36.46-.88.82-.5.34-1.16.52-.66.2-1.48.2m.58-1.72q.621 0 1.14-.18.54-.2.92-.54.381-.36.6-.84.22-.5.22-1.08v-.7q-1.38 0-2.42.16t-1.62.6q-.58.42-.58 1.18 0 .46.2.78.201.3.6.46.4.16.94.16m10.377 1.72q-.9 0-1.42-.34a2.04 2.04 0 0 1-.72-.9 3.5 3.5 0 0 1-.2-1.18v-6.62h-1.32v-1.72h1.36l.38-2.94h1.66v2.94h1.9v1.72h-1.9v6.38q0 .46.2.7t.66.24h1.04v1.4q-.2.08-.5.14-.28.08-.58.12-.3.06-.56.06m7.833 0q-1.62 0-2.72-.58-1.08-.6-1.64-1.82t-.56-3.1q0-1.9.56-3.1.56-1.22 1.66-1.8 1.1-.6 2.74-.6 1.5 0 2.5.58 1.02.56 1.54 1.72t.52 2.92v.8h-7.38q.04 1.12.34 1.88.3.74.9 1.1.621.34 1.56.34.58 0 1.04-.14.46-.16.78-.44.32-.3.5-.7.18-.42.18-.94h2.04q0 .94-.32 1.66t-.94 1.22q-.6.48-1.44.74t-1.86.26m-2.74-6.5h5.16q0-.78-.18-1.3a2.14 2.14 0 0 0-.48-.88 1.76 1.76 0 0 0-.76-.48 2.9 2.9 0 0 0-1-.16q-.84 0-1.44.3-.579.3-.9.94-.32.62-.4 1.58m19.776 6.5q-2.1 0-3.58-.74-1.46-.76-2.24-2.34t-.78-4.02q0-3.6 1.74-5.34 1.76-1.76 4.88-1.76 1.72 0 3.08.58 1.38.58 2.16 1.74.8 1.14.8 2.92h-2.28q0-1.1-.46-1.84t-1.32-1.12q-.84-.38-1.96-.38-1.4 0-2.38.56-.96.54-1.46 1.64-.48 1.1-.48 2.8v.44q0 1.7.48 2.8.5 1.1 1.46 1.64.96.52 2.38.52 1.16 0 2.02-.36.86-.38 1.32-1.12.48-.74.48-1.84h2.2q0 1.78-.8 2.94-.78 1.16-2.16 1.72-1.36.56-3.1.56m8.272-.24v-14.46h2.08v5.2h.14q.38-.48.86-.8.48-.34 1.08-.52t1.32-.18q1 0 1.76.36.76.34 1.18 1.12.44.78.44 2.1v7.18h-2.08v-6.86q0-.6-.16-1a1.45 1.45 0 0 0-.42-.64 1.6 1.6 0 0 0-.66-.34 3.3 3.3 0 0 0-.84-.1q-.72 0-1.32.34-.58.34-.94.96t-.36 1.48v6.16zm14.125.24q-.5 0-1.08-.12a3.4 3.4 0 0 1-1.1-.44 2.5 2.5 0 0 1-.82-.88q-.32-.58-.32-1.5 0-1.08.5-1.78t1.4-1.1 2.14-.56q1.26-.16 2.74-.16v-1.04q0-.52-.18-.92-.16-.4-.62-.62-.44-.22-1.28-.22t-1.32.22q-.46.2-.66.52-.18.3-.18.66v.3h-2a1 1 0 0 1-.02-.2v-.24q0-.94.52-1.58.54-.66 1.5-1t2.22-.34q1.36 0 2.26.4.92.38 1.38 1.1t.46 1.74v5.34q0 .38.18.54.2.16.46.16h.72v1.4q-.24.1-.6.2t-.84.1q-.54 0-.92-.2-.36-.18-.6-.52a2.3 2.3 0 0 1-.3-.8h-.12q-.36.46-.88.82-.5.34-1.16.52-.66.2-1.48.2m.58-1.72q.62 0 1.14-.18.54-.2.92-.54a2.7 2.7 0 0 0 .6-.84q.22-.5.22-1.08v-.7q-1.38 0-2.42.16t-1.62.6q-.58.42-.58 1.18 0 .46.2.78.2.3.6.46t.94.16m7.756 1.48v-10.52h1.72l.18 1.7h.12a4.7 4.7 0 0 1 .46-.94q.3-.44.76-.72.48-.28 1.16-.28.32 0 .56.06.26.06.4.1v1.96h-.7q-.64 0-1.14.2-.48.2-.82.6a2.5 2.5 0 0 0-.48.94q-.14.56-.14 1.26v5.64zm9.379.24q-.5 0-1.08-.12a3.4 3.4 0 0 1-1.1-.44 2.5 2.5 0 0 1-.82-.88q-.32-.58-.32-1.5 0-1.08.5-1.78t1.4-1.1 2.14-.56q1.26-.16 2.74-.16v-1.04q0-.52-.18-.92-.16-.4-.62-.62-.44-.22-1.28-.22t-1.32.22q-.46.2-.66.52-.18.3-.18.66v.3h-2a1 1 0 0 1-.02-.2v-.24q0-.94.52-1.58.54-.66 1.5-1t2.22-.34q1.36 0 2.26.4.92.38 1.38 1.1t.46 1.74v5.34q0 .38.18.54.2.16.46.16h.72v1.4q-.24.1-.6.2t-.84.1q-.54 0-.92-.2-.36-.18-.6-.52a2.3 2.3 0 0 1-.3-.8h-.12q-.36.46-.88.82-.5.34-1.16.52-.66.2-1.48.2m.58-1.72q.62 0 1.14-.18.54-.2.92-.54a2.7 2.7 0 0 0 .6-.84q.22-.5.22-1.08v-.7q-1.38 0-2.42.16t-1.62.6q-.58.42-.58 1.18 0 .46.2.78.2.3.6.46t.94.16m11.936 1.72q-1.58 0-2.64-.58-1.06-.6-1.6-1.82-.52-1.22-.52-3.1t.54-3.08q.54-1.22 1.6-1.82 1.08-.6 2.64-.6 1.08 0 1.88.28.8.26 1.36.8.56.52.82 1.3.28.78.28 1.78h-2.1q0-.84-.24-1.38a1.6 1.6 0 0 0-.74-.8q-.5-.28-1.3-.28-.84 0-1.42.4-.58.38-.88 1.18-.3.78-.3 2.06v.34q0 1.22.28 2.04.3.8.88 1.2.6.38 1.52.38.8 0 1.28-.28.5-.3.74-.84.26-.56.26-1.34h2.02q0 .94-.28 1.7a3.4 3.4 0 0 1-.82 1.32q-.54.54-1.36.84t-1.9.3m9.085 0q-.9 0-1.42-.34a2.04 2.04 0 0 1-.72-.9 3.5 3.5 0 0 1-.2-1.18v-6.62h-1.32v-1.72h1.36l.38-2.94h1.66v2.94h1.9v1.72h-1.9v6.38q0 .46.2.7t.66.24h1.04v1.4q-.2.08-.5.14-.28.08-.58.12-.3.06-.56.06m7.833 0q-1.62 0-2.72-.58-1.08-.6-1.64-1.82t-.56-3.1q0-1.9.56-3.1.56-1.22 1.66-1.8 1.1-.6 2.74-.6 1.5 0 2.5.58 1.02.56 1.54 1.72t.52 2.92v.8h-7.38q.04 1.12.34 1.88.3.74.9 1.1.621.34 1.56.34.58 0 1.04-.14.46-.16.78-.44.32-.3.5-.7.18-.42.18-.94h2.04q0 .94-.32 1.66t-.94 1.22q-.6.48-1.44.74t-1.86.26m-2.74-6.5h5.16q0-.78-.18-1.3a2.14 2.14 0 0 0-.48-.88 1.76 1.76 0 0 0-.76-.48 2.9 2.9 0 0 0-1-.16q-.84 0-1.44.3-.579.3-.9.94-.32.62-.4 1.58m9.455 6.26v-10.52h1.72l.18 1.7h.12a4.7 4.7 0 0 1 .46-.94q.3-.44.76-.72.48-.28 1.16-.28.32 0 .56.06.26.06.4.1v1.96h-.7q-.64 0-1.14.2a2.14 2.14 0 0 0-.82.6 2.5 2.5 0 0 0-.48.94q-.14.56-.14 1.26v5.64z"/><defs><linearGradient id="a" x1="188.02" x2="188.02" y1=".384" y2="84.359" gradientUnits="userSpaceOnUse"><stop stop-color="#EFEFEF"/><stop offset="1" stop-color="#EFEFEF" stop-opacity=".58"/></linearGradient><clipPath id="b"><path fill="#fff" d="M96.072 33.67h17.4v17.4h-17.4z"/></clipPath></defs></svg>