<svg width="24" height="25" viewBox="0 0 24 25" fill="none" xmlns="http://www.w3.org/2000/svg">
<path d="M17 2.30859H7C4.23858 2.30859 2 4.54717 2 7.30859V17.3086C2 20.07 4.23858 22.3086 7 22.3086H17C19.7614 22.3086 22 20.07 22 17.3086V7.30859C22 4.54717 19.7614 2.30859 17 2.30859Z" stroke="#777777" stroke-width="2" stroke-linecap="round" stroke-linejoin="round"/>
<path d="M17.4997 6.80859H17.5097M15.9997 11.6786C16.1231 12.5108 15.981 13.3608 15.5935 14.1076C15.206 14.8544 14.5929 15.46 13.8413 15.8383C13.0898 16.2165 12.2382 16.3482 11.4075 16.2145C10.5768 16.0809 9.80947 15.6887 9.21455 15.0938C8.61962 14.4988 8.22744 13.7315 8.09377 12.9008C7.96011 12.0701 8.09177 11.2185 8.47003 10.467C8.84829 9.71545 9.45389 9.10233 10.2007 8.71484C10.9475 8.32734 11.7975 8.18518 12.6297 8.30859C13.4786 8.43448 14.2646 8.83006 14.8714 9.4369C15.4782 10.0437 15.8738 10.8297 15.9997 11.6786Z" stroke="#777777" stroke-width="2" stroke-linecap="round" stroke-linejoin="round"/>
</svg>
