<svg width="24" height="25" viewBox="0 0 24 25" fill="none" xmlns="http://www.w3.org/2000/svg">
<path d="M16 8.30859C17.5913 8.30859 19.1174 8.94073 20.2426 10.066C21.3679 11.1912 22 12.7173 22 14.3086V21.3086H18V14.3086C18 13.7782 17.7893 13.2695 17.4142 12.8944C17.0391 12.5193 16.5304 12.3086 16 12.3086C15.4696 12.3086 14.9609 12.5193 14.5858 12.8944C14.2107 13.2695 14 13.7782 14 14.3086V21.3086H10V14.3086C10 12.7173 10.6321 11.1912 11.7574 10.066C12.8826 8.94073 14.4087 8.30859 16 8.30859ZM2 9.30859H6V21.3086H2V9.30859Z" stroke="#777777" stroke-width="2" stroke-linecap="round" stroke-linejoin="round"/>
<path d="M4 6.30859C5.10457 6.30859 6 5.41316 6 4.30859C6 3.20402 5.10457 2.30859 4 2.30859C2.89543 2.30859 2 3.20402 2 4.30859C2 5.41316 2.89543 6.30859 4 6.30859Z" stroke="#777777" stroke-width="2" stroke-linecap="round" stroke-linejoin="round"/>
</svg>
