<svg xmlns="http://www.w3.org/2000/svg" width="375" height="84" fill="none"><rect width="374" height="83" x=".261" y=".871" fill="#fff" fill-opacity=".05" rx="8.326"/><rect width="373.167" height="82.167" x=".677" y="1.287" stroke="url(#a)" stroke-opacity=".2" stroke-width=".833" rx="7.91"/><path fill="#fff" d="m49 46.371-3.33-9.139h1.879l2.171 6.288q.053.133.107.306.052.174.106.334.054.146.094.266h.066q.04-.106.08-.253a12 12 0 0 0 .213-.64l2.159-6.301h1.798l-3.33 9.14zm8.795.16q-1.146 0-1.919-.386a2.56 2.56 0 0 1-1.159-1.213q-.386-.812-.386-2.065 0-1.265.386-2.065a2.5 2.5 0 0 1 1.16-1.199q.772-.4 1.918-.4 1.16 0 1.918.4.773.387 1.16 1.2.386.798.386 2.064 0 1.253-.387 2.065a2.56 2.56 0 0 1-1.159 1.213q-.759.386-1.918.386m0-1.332q.639 0 1.026-.24.399-.254.573-.746.186-.507.186-1.252v-.187q0-.745-.186-1.239-.174-.506-.573-.746-.387-.253-1.026-.253-.64 0-1.04.253-.386.24-.572.746-.173.493-.173 1.24v.186q0 .745.173 1.252.186.492.573.746.399.24 1.039.24m4.844-6.914v-1.546h1.626v1.546zm0 8.086v-7.007h1.626v7.007zm6.275.16q-1.093 0-1.826-.386-.72-.4-1.079-1.213-.36-.812-.36-2.065 0-1.265.36-2.065.374-.812 1.093-1.199.732-.4 1.812-.4.706 0 1.252.174.546.173.933.533.4.346.599.866.2.519.2 1.212h-1.652q0-.493-.147-.813a1 1 0 0 0-.453-.48q-.292-.172-.759-.172-.546 0-.893.253-.346.252-.52.76-.159.492-.159 1.251v.174q0 .745.16 1.252.173.505.533.76.36.24.946.24.453 0 .746-.16.306-.174.466-.507t.16-.8h1.572q0 .654-.2 1.173a2.3 2.3 0 0 1-.586.88q-.387.359-.946.545a3.9 3.9 0 0 1-1.252.187m7.379 0q-1.12 0-1.866-.386a2.52 2.52 0 0 1-1.119-1.213q-.373-.812-.373-2.065 0-1.265.373-2.065.373-.812 1.12-1.199.745-.4 1.865-.4 1.011 0 1.691.387.693.373 1.04 1.16.346.785.346 2.037v.48H74.6q.027.653.2 1.106.174.44.533.666.373.213.973.213.306 0 .573-.08t.466-.24q.2-.172.306-.426.12-.253.12-.586h1.599q0 .666-.24 1.159-.225.493-.653.813-.413.319-.972.48-.56.159-1.212.159m-1.666-4.41h3.051q0-.439-.107-.746a1.3 1.3 0 0 0-.28-.506.9.9 0 0 0-.426-.28 1.7 1.7 0 0 0-.572-.093q-.52 0-.88.173a1.2 1.2 0 0 0-.533.533q-.186.36-.253.92m12.96 4.41q-1.4 0-2.399-.493-.986-.494-1.518-1.532-.52-1.053-.52-2.704 0-2.412 1.172-3.57 1.173-1.16 3.264-1.16 1.133 0 2.039.386a3.2 3.2 0 0 1 1.452 1.173q.546.772.546 1.972H89.85q0-.667-.293-1.12a1.8 1.8 0 0 0-.786-.706 2.7 2.7 0 0 0-1.159-.24q-.906 0-1.505.36-.6.347-.893 1.04-.28.692-.28 1.718v.293q0 1.04.28 1.732.292.693.88 1.04.599.345 1.518.346.693 0 1.212-.227.52-.24.8-.693.293-.466.293-1.132h1.705q0 1.199-.533 1.985-.533.772-1.452 1.159-.906.373-2.052.373m5.43-.16V36.74h1.626v9.632zm6.475.16q-1.146 0-1.919-.386a2.56 2.56 0 0 1-1.159-1.213q-.386-.812-.386-2.065 0-1.265.386-2.065a2.5 2.5 0 0 1 1.16-1.199q.772-.4 1.918-.4 1.159 0 1.918.4.773.387 1.159 1.2.387.798.387 2.064 0 1.253-.387 2.065a2.56 2.56 0 0 1-1.159 1.213q-.76.386-1.918.386m0-1.332q.639 0 1.026-.24.4-.254.572-.746.187-.507.187-1.252v-.187q0-.745-.187-1.239-.173-.506-.572-.746-.387-.253-1.026-.253-.64 0-1.04.253-.386.24-.572.746-.173.493-.173 1.24v.186q0 .745.173 1.252.186.492.573.746.399.24 1.039.24m4.845 1.172v-7.007h1.358l.134.932h.093q.24-.32.559-.56.333-.252.746-.386.427-.146.933-.146.666 0 1.172.24.52.24.813.772t.293 1.426v4.73h-1.639v-4.437q0-.373-.093-.613a.83.83 0 0 0-.253-.4.9.9 0 0 0-.4-.226 2 2 0 0 0-.532-.067q-.44 0-.8.213a1.6 1.6 0 0 0-.559.587q-.2.373-.2.865v4.077zm7.779-8.087V36.74h1.626v1.546zm0 8.087v-7.007h1.626v7.007zm3.357 0v-7.007h1.359l.133.932h.093q.24-.32.56-.56.333-.252.746-.386.426-.146.933-.146.666 0 1.172.24.519.24.813.772t.293 1.426v4.73h-1.639v-4.437q0-.373-.093-.613a.85.85 0 0 0-.253-.4.9.9 0 0 0-.4-.226 2 2 0 0 0-.533-.067q-.44 0-.799.213a1.6 1.6 0 0 0-.56.587 1.8 1.8 0 0 0-.2.865v4.077zm8.939 2.425q-.466 0-.879-.187a1.56 1.56 0 0 1-.666-.56q-.253-.36-.253-.892 0-.585.333-.92a2.4 2.4 0 0 1 .759-.519 1.5 1.5 0 0 1-.506-.426 1.1 1.1 0 0 1-.187-.64q0-.505.373-.799.373-.306.853-.4a2.15 2.15 0 0 1-.76-.786 2.3 2.3 0 0 1-.253-1.092q0-.732.347-1.252.36-.532 1.039-.826.68-.294 1.639-.293.386 0 .746.053.359.054.652.16.466-.28.64-.626.172-.36.186-.586h1.586q0 .465-.187.826-.173.36-.493.599-.32.227-.772.333.332.292.506.706.173.414.173.906 0 .733-.346 1.266-.333.532-1 .826-.652.293-1.612.293h-1.079q-.28 0-.439.12a.4.4 0 0 0-.147.333q0 .172.133.306a.57.57 0 0 0 .4.133h3.064q.786 0 1.292.52.52.506.52 1.306 0 .6-.32 1.079-.306.48-.866.759-.56.28-1.305.28zm.586-1.173h2.571a1 1 0 0 0 .44-.093.64.64 0 0 0 .306-.24.6.6 0 0 0 .12-.36q0-.346-.226-.519a.82.82 0 0 0-.533-.173h-2.678a.78.78 0 0 0-.533.186.66.66 0 0 0-.213.507q0 .306.2.492.213.2.546.2m1.266-4.809q.706 0 1.052-.32.36-.333.36-.919t-.36-.906q-.346-.32-1.052-.32t-1.066.32q-.346.32-.346.906 0 .387.146.666.16.28.467.426.32.147.799.147"/><g clip-path="url(#b)"><rect width="174.448" height="36.957" x="154.537" y="23.893" fill="#2B2D31" rx="18.479"/><circle cx="173.016" cy="42.37" r=".77" fill="#5865F2"/><circle cx="173.015" cy="42.371" r="12.319" fill="#5865F2"/><path fill="#fff" d="M171.484 37.62a1.155 1.155 0 0 0-1.741.996v7.51c0 .893.971 1.449 1.741.996l6.384-3.756a1.155 1.155 0 0 0 0-1.99z"/><rect width="1.54" height="1.54" x="194.574" y="41.601" fill="#fff" opacity=".66" rx=".77"/><rect width="1.54" height="6.16" x="199.193" y="39.291" fill="#fff" opacity=".66" rx=".77"/><rect width="1.54" height="10.779" x="203.813" y="36.981" fill="#fff" opacity=".66" rx=".77"/><rect width="1.54" height="3.08" x="208.433" y="40.831" fill="#fff" opacity=".66" rx=".77"/><rect width="1.54" height="12.319" x="213.053" y="36.211" fill="#fff" opacity=".66" rx=".77"/><rect width="1.54" height="10.779" x="217.672" y="36.981" fill="#fff" opacity=".66" rx=".77"/><rect width="1.54" height="7.699" x="222.292" y="38.522" fill="#fff" opacity=".66" rx=".77"/><rect width="1.54" height="7.699" x="226.911" y="38.522" fill="#fff" opacity=".66" rx=".77"/><rect width="1.54" height="7.699" x="231.531" y="38.522" fill="#fff" opacity=".66" rx=".77"/><rect width="1.54" height="10.779" x="236.15" y="36.981" fill="#fff" opacity=".66" rx=".77"/><rect width="1.54" height="7.699" x="240.771" y="38.522" fill="#fff" opacity=".66" rx=".77"/><rect width="1.54" height="12.319" x="245.39" y="36.211" fill="#fff" opacity=".66" rx=".77"/><rect width="1.54" height="7.699" x="250.01" y="38.522" fill="#fff" opacity=".66" rx=".77"/><rect width="1.54" height="3.08" x="254.629" y="40.831" fill="#fff" opacity=".66" rx=".77"/><rect width="1.54" height="1.54" x="259.249" y="41.601" fill="#fff" opacity=".66" rx=".77"/><g opacity=".66"><path fill="red" d="M275.665 42.012q0 .938-.14 1.67a3.8 3.8 0 0 1-.453 1.251 2.06 2.06 0 0 1-.798.776q-.485.27-1.175.27-.861 0-1.433-.474-.56-.476-.841-1.359-.27-.894-.269-2.134 0-1.25.247-2.134.26-.884.82-1.347.56-.475 1.476-.475.863 0 1.434.475.572.464.852 1.347.28.884.28 2.134m-4.161 0q0 1.056.151 1.757.162.701.507 1.056.355.345.937.345t.927-.345q.357-.345.518-1.045.162-.712.161-1.768 0-1.056-.161-1.746-.161-.7-.518-1.046-.345-.355-.927-.355t-.937.355q-.345.345-.507 1.046-.151.69-.151 1.746m5.468 3.277q0-.4.194-.56a.7.7 0 0 1 .463-.162q.28 0 .475.161.204.162.205.561 0 .389-.205.56a.7.7 0 0 1-.475.173.67.67 0 0 1-.463-.172q-.194-.173-.194-.561m0-4.613q0-.41.194-.572a.7.7 0 0 1 .463-.161q.28 0 .475.161.204.162.205.572 0 .387-.205.56a.7.7 0 0 1-.475.172.67.67 0 0 1-.463-.172q-.194-.173-.194-.56m7.746 1.336q0 .938-.141 1.67a3.8 3.8 0 0 1-.452 1.251 2.06 2.06 0 0 1-.798.776q-.485.27-1.175.27-.863 0-1.433-.474-.56-.476-.841-1.359-.27-.894-.27-2.134 0-1.25.248-2.134.26-.884.819-1.347.56-.475 1.477-.475.863 0 1.434.475.572.464.851 1.347.28.884.281 2.134m-4.161 0q0 1.056.151 1.757.161.701.506 1.056.357.345.938.345.582 0 .927-.345.356-.345.518-1.045.16-.712.161-1.768 0-1.056-.161-1.746-.162-.7-.518-1.046-.345-.355-.927-.355-.581 0-.938.355-.345.345-.506 1.046-.151.69-.151 1.746m7.656-.862q.786 0 1.369.27.582.269.895.775.323.497.323 1.218 0 .798-.345 1.38a2.3 2.3 0 0 1-.992.884q-.636.302-1.541.302-.593 0-1.121-.108a3 3 0 0 1-.873-.312v-.895q.387.237.938.377.56.13 1.067.13.571 0 .991-.173.432-.183.669-.55.237-.377.237-.937 0-.756-.464-1.154-.463-.41-1.466-.41a5 5 0 0 0-.69.054 8 8 0 0 0-.625.108l-.474-.302.291-3.632h3.859v.862h-3.051l-.183 2.231q.184-.031.496-.075.312-.043.69-.043" style="mix-blend-mode:saturation"/><path fill="#fff" d="M275.665 42.012q0 .938-.14 1.67a3.8 3.8 0 0 1-.453 1.251 2.06 2.06 0 0 1-.798.776q-.485.27-1.175.27-.861 0-1.433-.474-.56-.476-.841-1.359-.27-.894-.269-2.134 0-1.25.247-2.134.26-.884.82-1.347.56-.475 1.476-.475.863 0 1.434.475.572.464.852 1.347.28.884.28 2.134m-4.161 0q0 1.056.151 1.757.162.701.507 1.056.355.345.937.345t.927-.345q.357-.345.518-1.045.162-.712.161-1.768 0-1.056-.161-1.746-.161-.7-.518-1.046-.345-.355-.927-.355t-.937.355q-.345.345-.507 1.046-.151.69-.151 1.746m5.468 3.277q0-.4.194-.56a.7.7 0 0 1 .463-.162q.28 0 .475.161.204.162.205.561 0 .389-.205.56a.7.7 0 0 1-.475.173.67.67 0 0 1-.463-.172q-.194-.173-.194-.561m0-4.613q0-.41.194-.572a.7.7 0 0 1 .463-.161q.28 0 .475.161.204.162.205.572 0 .387-.205.56a.7.7 0 0 1-.475.172.67.67 0 0 1-.463-.172q-.194-.173-.194-.56m7.746 1.336q0 .938-.141 1.67a3.8 3.8 0 0 1-.452 1.251 2.06 2.06 0 0 1-.798.776q-.485.27-1.175.27-.863 0-1.433-.474-.56-.476-.841-1.359-.27-.894-.27-2.134 0-1.25.248-2.134.26-.884.819-1.347.56-.475 1.477-.475.863 0 1.434.475.572.464.851 1.347.28.884.281 2.134m-4.161 0q0 1.056.151 1.757.161.701.506 1.056.357.345.938.345.582 0 .927-.345.356-.345.518-1.045.16-.712.161-1.768 0-1.056-.161-1.746-.162-.7-.518-1.046-.345-.355-.927-.355-.581 0-.938.355-.345.345-.506 1.046-.151.69-.151 1.746m7.656-.862q.786 0 1.369.27.582.269.895.775.323.497.323 1.218 0 .798-.345 1.38a2.3 2.3 0 0 1-.992.884q-.636.302-1.541.302-.593 0-1.121-.108a3 3 0 0 1-.873-.312v-.895q.387.237.938.377.56.13 1.067.13.571 0 .991-.173.432-.183.669-.55.237-.377.237-.937 0-.756-.464-1.154-.463-.41-1.466-.41a5 5 0 0 0-.69.054 8 8 0 0 0-.625.108l-.474-.302.291-3.632h3.859v.862h-3.051l-.183 2.231q.184-.031.496-.075.312-.043.69-.043" style="mix-blend-mode:difference"/><path fill="#fff" d="M275.665 42.012q0 .938-.14 1.67a3.8 3.8 0 0 1-.453 1.251 2.06 2.06 0 0 1-.798.776q-.485.27-1.175.27-.861 0-1.433-.474-.56-.476-.841-1.359-.27-.894-.269-2.134 0-1.25.247-2.134.26-.884.82-1.347.56-.475 1.476-.475.863 0 1.434.475.572.464.852 1.347.28.884.28 2.134m-4.161 0q0 1.056.151 1.757.162.701.507 1.056.355.345.937.345t.927-.345q.357-.345.518-1.045.162-.712.161-1.768 0-1.056-.161-1.746-.161-.7-.518-1.046-.345-.355-.927-.355t-.937.355q-.345.345-.507 1.046-.151.69-.151 1.746m5.468 3.277q0-.4.194-.56a.7.7 0 0 1 .463-.162q.28 0 .475.161.204.162.205.561 0 .389-.205.56a.7.7 0 0 1-.475.173.67.67 0 0 1-.463-.172q-.194-.173-.194-.561m0-4.613q0-.41.194-.572a.7.7 0 0 1 .463-.161q.28 0 .475.161.204.162.205.572 0 .387-.205.56a.7.7 0 0 1-.475.172.67.67 0 0 1-.463-.172q-.194-.173-.194-.56m7.746 1.336q0 .938-.141 1.67a3.8 3.8 0 0 1-.452 1.251 2.06 2.06 0 0 1-.798.776q-.485.27-1.175.27-.863 0-1.433-.474-.56-.476-.841-1.359-.27-.894-.27-2.134 0-1.25.248-2.134.26-.884.819-1.347.56-.475 1.477-.475.863 0 1.434.475.572.464.851 1.347.28.884.281 2.134m-4.161 0q0 1.056.151 1.757.161.701.506 1.056.357.345.938.345.582 0 .927-.345.356-.345.518-1.045.16-.712.161-1.768 0-1.056-.161-1.746-.162-.7-.518-1.046-.345-.355-.927-.355-.581 0-.938.355-.345.345-.506 1.046-.151.69-.151 1.746m7.656-.862q.786 0 1.369.27.582.269.895.775.323.497.323 1.218 0 .798-.345 1.38a2.3 2.3 0 0 1-.992.884q-.636.302-1.541.302-.593 0-1.121-.108a3 3 0 0 1-.873-.312v-.895q.387.237.938.377.56.13 1.067.13.571 0 .991-.173.432-.183.669-.55.237-.377.237-.937 0-.756-.464-1.154-.463-.41-1.466-.41a5 5 0 0 0-.69.054 8 8 0 0 0-.625.108l-.474-.302.291-3.632h3.859v.862h-3.051l-.183 2.231q.184-.031.496-.075.312-.043.69-.043" style="mix-blend-mode:saturation"/><path fill="#fff" d="M275.665 42.012q0 .938-.14 1.67a3.8 3.8 0 0 1-.453 1.251 2.06 2.06 0 0 1-.798.776q-.485.27-1.175.27-.861 0-1.433-.474-.56-.476-.841-1.359-.27-.894-.269-2.134 0-1.25.247-2.134.26-.884.82-1.347.56-.475 1.476-.475.863 0 1.434.475.572.464.852 1.347.28.884.28 2.134m-4.161 0q0 1.056.151 1.757.162.701.507 1.056.355.345.937.345t.927-.345q.357-.345.518-1.045.162-.712.161-1.768 0-1.056-.161-1.746-.161-.7-.518-1.046-.345-.355-.927-.355t-.937.355q-.345.345-.507 1.046-.151.69-.151 1.746m5.468 3.277q0-.4.194-.56a.7.7 0 0 1 .463-.162q.28 0 .475.161.204.162.205.561 0 .389-.205.56a.7.7 0 0 1-.475.173.67.67 0 0 1-.463-.172q-.194-.173-.194-.561m0-4.613q0-.41.194-.572a.7.7 0 0 1 .463-.161q.28 0 .475.161.204.162.205.572 0 .387-.205.56a.7.7 0 0 1-.475.172.67.67 0 0 1-.463-.172q-.194-.173-.194-.56m7.746 1.336q0 .938-.141 1.67a3.8 3.8 0 0 1-.452 1.251 2.06 2.06 0 0 1-.798.776q-.485.27-1.175.27-.863 0-1.433-.474-.56-.476-.841-1.359-.27-.894-.27-2.134 0-1.25.248-2.134.26-.884.819-1.347.56-.475 1.477-.475.863 0 1.434.475.572.464.851 1.347.28.884.281 2.134m-4.161 0q0 1.056.151 1.757.161.701.506 1.056.357.345.938.345.582 0 .927-.345.356-.345.518-1.045.16-.712.161-1.768 0-1.056-.161-1.746-.162-.7-.518-1.046-.345-.355-.927-.355-.581 0-.938.355-.345.345-.506 1.046-.151.69-.151 1.746m7.656-.862q.786 0 1.369.27.582.269.895.775.323.497.323 1.218 0 .798-.345 1.38a2.3 2.3 0 0 1-.992.884q-.636.302-1.541.302-.593 0-1.121-.108a3 3 0 0 1-.873-.312v-.895q.387.237.938.377.56.13 1.067.13.571 0 .991-.173.432-.183.669-.55.237-.377.237-.937 0-.756-.464-1.154-.463-.41-1.466-.41a5 5 0 0 0-.69.054 8 8 0 0 0-.625.108l-.474-.302.291-3.632h3.859v.862h-3.051l-.183 2.231q.184-.031.496-.075.312-.043.69-.043" style="mix-blend-mode:overlay"/><path fill="#000" d="M275.665 42.012q0 .938-.14 1.67a3.8 3.8 0 0 1-.453 1.251 2.06 2.06 0 0 1-.798.776q-.485.27-1.175.27-.861 0-1.433-.474-.56-.476-.841-1.359-.27-.894-.269-2.134 0-1.25.247-2.134.26-.884.82-1.347.56-.475 1.476-.475.863 0 1.434.475.572.464.852 1.347.28.884.28 2.134m-4.161 0q0 1.056.151 1.757.162.701.507 1.056.355.345.937.345t.927-.345q.357-.345.518-1.045.162-.712.161-1.768 0-1.056-.161-1.746-.161-.7-.518-1.046-.345-.355-.927-.355t-.937.355q-.345.345-.507 1.046-.151.69-.151 1.746m5.468 3.277q0-.4.194-.56a.7.7 0 0 1 .463-.162q.28 0 .475.161.204.162.205.561 0 .389-.205.56a.7.7 0 0 1-.475.173.67.67 0 0 1-.463-.172q-.194-.173-.194-.561m0-4.613q0-.41.194-.572a.7.7 0 0 1 .463-.161q.28 0 .475.161.204.162.205.572 0 .387-.205.56a.7.7 0 0 1-.475.172.67.67 0 0 1-.463-.172q-.194-.173-.194-.56m7.746 1.336q0 .938-.141 1.67a3.8 3.8 0 0 1-.452 1.251 2.06 2.06 0 0 1-.798.776q-.485.27-1.175.27-.863 0-1.433-.474-.56-.476-.841-1.359-.27-.894-.27-2.134 0-1.25.248-2.134.26-.884.819-1.347.56-.475 1.477-.475.863 0 1.434.475.572.464.851 1.347.28.884.281 2.134m-4.161 0q0 1.056.151 1.757.161.701.506 1.056.357.345.938.345.582 0 .927-.345.356-.345.518-1.045.16-.712.161-1.768 0-1.056-.161-1.746-.162-.7-.518-1.046-.345-.355-.927-.355-.581 0-.938.355-.345.345-.506 1.046-.151.69-.151 1.746m7.656-.862q.786 0 1.369.27.582.269.895.775.323.497.323 1.218 0 .798-.345 1.38a2.3 2.3 0 0 1-.992.884q-.636.302-1.541.302-.593 0-1.121-.108a3 3 0 0 1-.873-.312v-.895q.387.237.938.377.56.13 1.067.13.571 0 .991-.173.432-.183.669-.55.237-.377.237-.937 0-.756-.464-1.154-.463-.41-1.466-.41a5 5 0 0 0-.69.054 8 8 0 0 0-.625.108l-.474-.302.291-3.632h3.859v.862h-3.051l-.183 2.231q.184-.031.496-.075.312-.043.69-.043" style="mix-blend-mode:overlay"/><path fill="#fff" d="M275.665 42.012q0 .938-.14 1.67a3.8 3.8 0 0 1-.453 1.251 2.06 2.06 0 0 1-.798.776q-.485.27-1.175.27-.861 0-1.433-.474-.56-.476-.841-1.359-.27-.894-.269-2.134 0-1.25.247-2.134.26-.884.82-1.347.56-.475 1.476-.475.863 0 1.434.475.572.464.852 1.347.28.884.28 2.134m-4.161 0q0 1.056.151 1.757.162.701.507 1.056.355.345.937.345t.927-.345q.357-.345.518-1.045.162-.712.161-1.768 0-1.056-.161-1.746-.161-.7-.518-1.046-.345-.355-.927-.355t-.937.355q-.345.345-.507 1.046-.151.69-.151 1.746m5.468 3.277q0-.4.194-.56a.7.7 0 0 1 .463-.162q.28 0 .475.161.204.162.205.561 0 .389-.205.56a.7.7 0 0 1-.475.173.67.67 0 0 1-.463-.172q-.194-.173-.194-.561m0-4.613q0-.41.194-.572a.7.7 0 0 1 .463-.161q.28 0 .475.161.204.162.205.572 0 .387-.205.56a.7.7 0 0 1-.475.172.67.67 0 0 1-.463-.172q-.194-.173-.194-.56m7.746 1.336q0 .938-.141 1.67a3.8 3.8 0 0 1-.452 1.251 2.06 2.06 0 0 1-.798.776q-.485.27-1.175.27-.863 0-1.433-.474-.56-.476-.841-1.359-.27-.894-.27-2.134 0-1.25.248-2.134.26-.884.819-1.347.56-.475 1.477-.475.863 0 1.434.475.572.464.851 1.347.28.884.281 2.134m-4.161 0q0 1.056.151 1.757.161.701.506 1.056.357.345.938.345.582 0 .927-.345.356-.345.518-1.045.16-.712.161-1.768 0-1.056-.161-1.746-.162-.7-.518-1.046-.345-.355-.927-.355-.581 0-.938.355-.345.345-.506 1.046-.151.69-.151 1.746m7.656-.862q.786 0 1.369.27.582.269.895.775.323.497.323 1.218 0 .798-.345 1.38a2.3 2.3 0 0 1-.992.884q-.636.302-1.541.302-.593 0-1.121-.108a3 3 0 0 1-.873-.312v-.895q.387.237.938.377.56.13 1.067.13.571 0 .991-.173.432-.183.669-.55.237-.377.237-.937 0-.756-.464-1.154-.463-.41-1.466-.41a5 5 0 0 0-.69.054 8 8 0 0 0-.625.108l-.474-.302.291-3.632h3.859v.862h-3.051l-.183 2.231q.184-.031.496-.075.312-.043.69-.043" style="mix-blend-mode:overlay"/><path fill="#000" d="M275.665 42.012q0 .938-.14 1.67a3.8 3.8 0 0 1-.453 1.251 2.06 2.06 0 0 1-.798.776q-.485.27-1.175.27-.861 0-1.433-.474-.56-.476-.841-1.359-.27-.894-.269-2.134 0-1.25.247-2.134.26-.884.82-1.347.56-.475 1.476-.475.863 0 1.434.475.572.464.852 1.347.28.884.28 2.134m-4.161 0q0 1.056.151 1.757.162.701.507 1.056.355.345.937.345t.927-.345q.357-.345.518-1.045.162-.712.161-1.768 0-1.056-.161-1.746-.161-.7-.518-1.046-.345-.355-.927-.355t-.937.355q-.345.345-.507 1.046-.151.69-.151 1.746m5.468 3.277q0-.4.194-.56a.7.7 0 0 1 .463-.162q.28 0 .475.161.204.162.205.561 0 .389-.205.56a.7.7 0 0 1-.475.173.67.67 0 0 1-.463-.172q-.194-.173-.194-.561m0-4.613q0-.41.194-.572a.7.7 0 0 1 .463-.161q.28 0 .475.161.204.162.205.572 0 .387-.205.56a.7.7 0 0 1-.475.172.67.67 0 0 1-.463-.172q-.194-.173-.194-.56m7.746 1.336q0 .938-.141 1.67a3.8 3.8 0 0 1-.452 1.251 2.06 2.06 0 0 1-.798.776q-.485.27-1.175.27-.863 0-1.433-.474-.56-.476-.841-1.359-.27-.894-.27-2.134 0-1.25.248-2.134.26-.884.819-1.347.56-.475 1.477-.475.863 0 1.434.475.572.464.851 1.347.28.884.281 2.134m-4.161 0q0 1.056.151 1.757.161.701.506 1.056.357.345.938.345.582 0 .927-.345.356-.345.518-1.045.16-.712.161-1.768 0-1.056-.161-1.746-.162-.7-.518-1.046-.345-.355-.927-.355-.581 0-.938.355-.345.345-.506 1.046-.151.69-.151 1.746m7.656-.862q.786 0 1.369.27.582.269.895.775.323.497.323 1.218 0 .798-.345 1.38a2.3 2.3 0 0 1-.992.884q-.636.302-1.541.302-.593 0-1.121-.108a3 3 0 0 1-.873-.312v-.895q.387.237.938.377.56.13 1.067.13.571 0 .991-.173.432-.183.669-.55.237-.377.237-.937 0-.756-.464-1.154-.463-.41-1.466-.41a5 5 0 0 0-.69.054 8 8 0 0 0-.625.108l-.474-.302.291-3.632h3.859v.862h-3.051l-.183 2.231q.184-.031.496-.075.312-.043.69-.043" style="mix-blend-mode:overlay"/></g><g fill-rule="evenodd" clip-rule="evenodd" opacity=".66"><path fill="red" d="M310.031 35.503a.77.77 0 0 0-.839.167l-3.306 3.623h-2.309a.77.77 0 0 0-.77.77v4.62c0 .423.346.77.77.77h2.309l3.306 3.624a.77.77 0 0 0 1.314-.545V36.213a.77.77 0 0 0-.475-.71m2.015 1.48v1.54a3.855 3.855 0 0 1 3.85 3.85 3.854 3.854 0 0 1-3.85 3.85v1.54a5.394 5.394 0 0 0 5.389-5.39 5.395 5.395 0 0 0-5.389-5.39m0 3.08a2.314 2.314 0 0 1 2.31 2.31 2.313 2.313 0 0 1-2.31 2.31v-1.54c.424 0 .77-.346.77-.77a.77.77 0 0 0-.77-.77z" style="mix-blend-mode:saturation"/><path fill="#fff" d="M310.031 35.503a.77.77 0 0 0-.839.167l-3.306 3.623h-2.309a.77.77 0 0 0-.77.77v4.62c0 .423.346.77.77.77h2.309l3.306 3.624a.77.77 0 0 0 1.314-.545V36.213a.77.77 0 0 0-.475-.71m2.015 1.48v1.54a3.855 3.855 0 0 1 3.85 3.85 3.854 3.854 0 0 1-3.85 3.85v1.54a5.394 5.394 0 0 0 5.389-5.39 5.395 5.395 0 0 0-5.389-5.39m0 3.08a2.314 2.314 0 0 1 2.31 2.31 2.313 2.313 0 0 1-2.31 2.31v-1.54c.424 0 .77-.346.77-.77a.77.77 0 0 0-.77-.77z" style="mix-blend-mode:difference"/><path fill="#fff" d="M310.031 35.503a.77.77 0 0 0-.839.167l-3.306 3.623h-2.309a.77.77 0 0 0-.77.77v4.62c0 .423.346.77.77.77h2.309l3.306 3.624a.77.77 0 0 0 1.314-.545V36.213a.77.77 0 0 0-.475-.71m2.015 1.48v1.54a3.855 3.855 0 0 1 3.85 3.85 3.854 3.854 0 0 1-3.85 3.85v1.54a5.394 5.394 0 0 0 5.389-5.39 5.395 5.395 0 0 0-5.389-5.39m0 3.08a2.314 2.314 0 0 1 2.31 2.31 2.313 2.313 0 0 1-2.31 2.31v-1.54c.424 0 .77-.346.77-.77a.77.77 0 0 0-.77-.77z" style="mix-blend-mode:saturation"/><path fill="#fff" d="M310.031 35.503a.77.77 0 0 0-.839.167l-3.306 3.623h-2.309a.77.77 0 0 0-.77.77v4.62c0 .423.346.77.77.77h2.309l3.306 3.624a.77.77 0 0 0 1.314-.545V36.213a.77.77 0 0 0-.475-.71m2.015 1.48v1.54a3.855 3.855 0 0 1 3.85 3.85 3.854 3.854 0 0 1-3.85 3.85v1.54a5.394 5.394 0 0 0 5.389-5.39 5.395 5.395 0 0 0-5.389-5.39m0 3.08a2.314 2.314 0 0 1 2.31 2.31 2.313 2.313 0 0 1-2.31 2.31v-1.54c.424 0 .77-.346.77-.77a.77.77 0 0 0-.77-.77z" style="mix-blend-mode:overlay"/><path fill="#000" d="M310.031 35.503a.77.77 0 0 0-.839.167l-3.306 3.623h-2.309a.77.77 0 0 0-.77.77v4.62c0 .423.346.77.77.77h2.309l3.306 3.624a.77.77 0 0 0 1.314-.545V36.213a.77.77 0 0 0-.475-.71m2.015 1.48v1.54a3.855 3.855 0 0 1 3.85 3.85 3.854 3.854 0 0 1-3.85 3.85v1.54a5.394 5.394 0 0 0 5.389-5.39 5.395 5.395 0 0 0-5.389-5.39m0 3.08a2.314 2.314 0 0 1 2.31 2.31 2.313 2.313 0 0 1-2.31 2.31v-1.54c.424 0 .77-.346.77-.77a.77.77 0 0 0-.77-.77z" style="mix-blend-mode:overlay"/><path fill="#fff" d="M310.031 35.503a.77.77 0 0 0-.839.167l-3.306 3.623h-2.309a.77.77 0 0 0-.77.77v4.62c0 .423.346.77.77.77h2.309l3.306 3.624a.77.77 0 0 0 1.314-.545V36.213a.77.77 0 0 0-.475-.71m2.015 1.48v1.54a3.855 3.855 0 0 1 3.85 3.85 3.854 3.854 0 0 1-3.85 3.85v1.54a5.394 5.394 0 0 0 5.389-5.39 5.395 5.395 0 0 0-5.389-5.39m0 3.08a2.314 2.314 0 0 1 2.31 2.31 2.313 2.313 0 0 1-2.31 2.31v-1.54c.424 0 .77-.346.77-.77a.77.77 0 0 0-.77-.77z" style="mix-blend-mode:overlay"/><path fill="#000" d="M310.031 35.503a.77.77 0 0 0-.839.167l-3.306 3.623h-2.309a.77.77 0 0 0-.77.77v4.62c0 .423.346.77.77.77h2.309l3.306 3.624a.77.77 0 0 0 1.314-.545V36.213a.77.77 0 0 0-.475-.71m2.015 1.48v1.54a3.855 3.855 0 0 1 3.85 3.85 3.854 3.854 0 0 1-3.85 3.85v1.54a5.394 5.394 0 0 0 5.389-5.39 5.395 5.395 0 0 0-5.389-5.39m0 3.08a2.314 2.314 0 0 1 2.31 2.31 2.313 2.313 0 0 1-2.31 2.31v-1.54c.424 0 .77-.346.77-.77a.77.77 0 0 0-.77-.77z" style="mix-blend-mode:overlay"/></g></g><defs><linearGradient id="a" x1="187.261" x2="187.261" y1=".871" y2="83.871" gradientUnits="userSpaceOnUse"><stop stop-color="#EFEFEF"/><stop offset="1" stop-color="#EFEFEF" stop-opacity=".58"/></linearGradient><clipPath id="b"><rect width="174.448" height="36.957" x="154.537" y="23.893" fill="#fff" rx="18.479"/></clipPath></defs></svg>