<svg xmlns="http://www.w3.org/2000/svg" width="376" height="84" fill="none"><rect width="375" height="83" x=".795" y=".884" fill="#fff" fill-opacity=".05" rx="8.326"/><rect width="374.167" height="82.167" x="1.211" y="1.3" stroke="url(#a)" stroke-opacity=".2" stroke-width=".833" rx="7.91"/><g clip-path="url(#b)"><rect width="52" height="52" x="14.117" y="16.384" fill="#fff" fill-opacity=".07" rx="16"/><path fill="#E9995F" d="M47.193 45.951c.138.082.308.178.5.286.842.475 2.116 1.194 2.988 2.048.546.534 1.064 1.238 1.158 2.1.1.917-.3 1.777-1.102 2.542-1.384 1.319-3.046 2.376-5.195 2.376H35.121c-2.15 0-3.81-1.057-5.195-2.376-.802-.765-1.202-1.625-1.102-2.542.094-.862.612-1.566 1.158-2.1.872-.854 2.146-1.573 2.988-2.048q.291-.162.5-.286c4.2-2.501 9.523-2.501 13.723 0"/><path fill="#E9995F" d="M34.127 36.098a6.204 6.204 0 1 1 12.409 0 6.204 6.204 0 0 1-12.409 0" opacity=".4"/><g filter="url(#c)"><circle cx="40.617" cy="45.884" r="6.5" fill="#E9995F"/></g></g><path fill="#fff" d="M83.643 26.379q-1.399 0-2.398-.493-.985-.494-1.519-1.532-.52-1.053-.52-2.705 0-2.41 1.173-3.57t3.264-1.16q1.133 0 2.038.387a3.2 3.2 0 0 1 1.453 1.172q.546.774.546 1.972h-1.772q0-.666-.293-1.119a1.8 1.8 0 0 0-.786-.706 2.7 2.7 0 0 0-1.16-.24q-.905 0-1.504.36-.6.345-.893 1.04-.28.692-.28 1.718v.293q0 1.039.28 1.732.292.693.88 1.039.599.345 1.518.346.693 0 1.212-.226.52-.24.8-.693.293-.465.293-1.132h1.705q0 1.198-.533 1.985-.533.772-1.452 1.159-.906.372-2.052.373m5.432-.16v-9.632H90.7v3.424h.093q.227-.28.533-.493t.693-.333q.4-.135.88-.134.665 0 1.172.24.52.24.812.773.294.532.293 1.425v4.73h-1.638v-4.437a1.7 1.7 0 0 0-.094-.612.84.84 0 0 0-.253-.4.9.9 0 0 0-.4-.226 2 2 0 0 0-.532-.067q-.44 0-.8.213-.345.213-.56.586-.198.374-.199.866v4.077zm9.578.16q-.293 0-.68-.08a2.4 2.4 0 0 1-.732-.267 1.6 1.6 0 0 1-.573-.586q-.226-.4-.226-1.04 0-.718.32-1.185.32-.48.892-.746a4.6 4.6 0 0 1 1.386-.386q.812-.12 1.771-.12v-.573q0-.306-.093-.546a.7.7 0 0 0-.346-.373q-.24-.147-.733-.147t-.773.12-.386.293a.7.7 0 0 0-.107.36v.186h-1.572a.7.7 0 0 1-.013-.133v-.16q0-.6.36-1.039.36-.44.999-.666.64-.24 1.479-.24.958 0 1.572.267.626.265.932.76.307.492.307 1.198v3.304q0 .254.146.36a.53.53 0 0 0 .32.106h.426v1.12a4 4 0 0 1-.386.12q-.254.08-.626.08-.347 0-.626-.12a1.2 1.2 0 0 1-.453-.32 1.3 1.3 0 0 1-.267-.507h-.08a2.7 2.7 0 0 1-.546.507 2.4 2.4 0 0 1-.733.333q-.413.12-.959.12m.493-1.333q.4 0 .706-.12.32-.12.52-.333.212-.213.32-.52.119-.305.119-.665v-.32q-.732 0-1.359.093-.612.094-.985.347-.36.252-.36.72 0 .239.107.425.12.175.346.28.24.093.586.093m5.111 1.173V19.21h1.359l.133 1.106h.094q.133-.333.319-.613a1.5 1.5 0 0 1 .507-.466q.306-.186.746-.187.213 0 .386.04.186.04.28.08v1.532h-.493q-.413 0-.733.12a1.3 1.3 0 0 0-.546.347q-.213.24-.32.6-.106.359-.106.838v3.61zm6.495.16q-.292 0-.679-.08a2.4 2.4 0 0 1-.733-.267 1.6 1.6 0 0 1-.573-.586q-.226-.4-.226-1.04 0-.718.32-1.185.32-.48.892-.746a4.6 4.6 0 0 1 1.386-.386q.813-.12 1.772-.12v-.573a1.5 1.5 0 0 0-.094-.546.7.7 0 0 0-.346-.373q-.24-.147-.733-.147-.492 0-.772.12t-.387.293a.7.7 0 0 0-.106.36v.186h-1.572a.7.7 0 0 1-.014-.133v-.16q0-.6.36-1.039.36-.44.999-.666.64-.24 1.479-.24.959 0 1.572.267.625.265.933.76.306.492.306 1.198v3.304q0 .254.147.36a.53.53 0 0 0 .319.106h.427v1.12a4 4 0 0 1-.387.12q-.253.08-.626.08-.347 0-.626-.12a1.2 1.2 0 0 1-.453-.32 1.26 1.26 0 0 1-.266-.507h-.08a2.414 2.414 0 0 1-1.279.84q-.413.12-.96.12m.493-1.333q.4 0 .706-.12.32-.12.52-.333.213-.213.32-.52.12-.305.12-.665v-.32q-.734 0-1.359.093-.613.094-.986.347-.36.252-.36.72 0 .239.107.425.12.175.346.28.24.093.586.093m8.029 1.333q-1.092 0-1.825-.387-.72-.399-1.079-1.212-.36-.813-.36-2.065 0-1.266.36-2.065.373-.812 1.092-1.199.734-.4 1.812-.4.706 0 1.253.174.546.173.932.532.4.347.6.866.2.52.199 1.213h-1.652q0-.494-.146-.813a1 1 0 0 0-.453-.48q-.293-.173-.759-.173-.547 0-.893.253-.346.254-.52.76-.159.492-.159 1.252v.173q0 .747.159 1.253.174.506.533.759.36.24.946.24.453 0 .746-.16.307-.174.467-.506.159-.333.159-.8h1.572q0 .652-.199 1.173-.2.52-.587.879a2.5 2.5 0 0 1-.945.546 3.9 3.9 0 0 1-1.253.187m6.22 0q-.653 0-1.026-.254a1.5 1.5 0 0 1-.533-.666 2.5 2.5 0 0 1-.146-.839v-4.076h-.839V19.21h.879l.293-1.958h1.292v1.958h1.212v1.333h-1.212v3.916q0 .28.147.44.146.146.439.146h.626v1.12a2 2 0 0 1-.333.093 3 3 0 0 1-.399.08q-.213.04-.4.04m5.348 0q-1.118 0-1.865-.387a2.53 2.53 0 0 1-1.119-1.212q-.373-.813-.373-2.065 0-1.266.373-2.065.374-.812 1.119-1.199.746-.4 1.865-.4 1.013 0 1.692.387.693.373 1.039 1.159.347.786.347 2.038v.48h-4.77q.027.652.2 1.105.174.44.533.667.373.213.973.213.306 0 .572-.08.267-.08.467-.24.2-.174.306-.426.12-.254.12-.587h1.599q0 .666-.24 1.16a2.1 2.1 0 0 1-.653.812 2.8 2.8 0 0 1-.972.48q-.56.16-1.213.16m-1.665-4.41h3.051q0-.44-.107-.746a1.26 1.26 0 0 0-.28-.506.9.9 0 0 0-.426-.28 1.7 1.7 0 0 0-.573-.093q-.519 0-.879.173a1.2 1.2 0 0 0-.533.533q-.187.36-.253.919m6.122 4.25V19.21h1.359l.133 1.106h.094a3.3 3.3 0 0 1 .319-.613 1.5 1.5 0 0 1 .507-.466q.305-.186.746-.187.213 0 .386.04.186.04.28.08v1.532h-.493q-.414 0-.733.12a1.3 1.3 0 0 0-.546.347q-.213.24-.32.6-.106.359-.106.838v3.61zm7.38 0v-9.14h1.652l3.904 5.396q.066.08.16.227.093.132.173.266.08.133.106.213h.067V17.08h1.665v9.139h-1.638l-3.917-5.436-.253-.386-.187-.333h-.066v6.155zm11.41.16q-.293 0-.68-.08a2.4 2.4 0 0 1-.732-.267 1.6 1.6 0 0 1-.573-.586q-.227-.4-.227-1.04 0-.718.32-1.185.32-.48.893-.746.585-.28 1.385-.386.813-.12 1.772-.12v-.573q0-.306-.093-.546a.7.7 0 0 0-.347-.373q-.24-.147-.732-.147-.494 0-.773.12-.28.12-.386.293a.67.67 0 0 0-.107.36v.186h-1.572a.7.7 0 0 1-.013-.133v-.16q0-.6.359-1.039.36-.44.999-.666.64-.24 1.479-.24.96 0 1.572.267.627.265.933.76.306.492.306 1.198v3.304q0 .254.147.36a.53.53 0 0 0 .32.106h.426v1.12a4 4 0 0 1-.387.12q-.252.08-.626.08-.346 0-.626-.12a1.2 1.2 0 0 1-.453-.32 1.26 1.26 0 0 1-.266-.507h-.08a2.7 2.7 0 0 1-.546.507 2.4 2.4 0 0 1-.733.333q-.413.12-.959.12m.493-1.333q.399 0 .706-.12.32-.12.519-.333.213-.213.32-.52.12-.305.12-.665v-.32q-.733 0-1.359.093-.612.094-.986.347-.36.252-.359.72 0 .239.106.425.12.175.346.28.24.093.587.093m5.111 1.173V19.21h1.359l.133.933h.093q.226-.32.52-.56.292-.252.666-.386.387-.147.839-.147.613 0 1.093.254.479.252.746.839h.093q.227-.32.533-.56a2.2 2.2 0 0 1 .706-.386q.4-.147.866-.147.626 0 1.106.227.478.226.759.746.28.52.28 1.385v4.81h-1.626v-4.477q0-.36-.079-.599a.86.86 0 0 0-.227-.386.77.77 0 0 0-.346-.213 1.4 1.4 0 0 0-.44-.067q-.386 0-.693.213a1.54 1.54 0 0 0-.493.586 2.04 2.04 0 0 0-.173.866v4.077h-1.625v-4.477q0-.36-.08-.599a.86.86 0 0 0-.227-.386.76.76 0 0 0-.346-.213 1.4 1.4 0 0 0-.44-.067q-.386 0-.706.213a1.54 1.54 0 0 0-.493.586 2.04 2.04 0 0 0-.173.866v4.077zm14.486.16q-1.12 0-1.866-.387a2.53 2.53 0 0 1-1.119-1.212q-.373-.813-.373-2.065 0-1.266.373-2.065.374-.812 1.119-1.199.746-.4 1.866-.4 1.013 0 1.691.387.693.373 1.04 1.159.346.786.346 2.038v.48h-4.769q.026.652.199 1.105.174.44.533.667.373.213.973.213.306 0 .573-.08t.466-.24q.2-.174.306-.426.12-.254.12-.587h1.599q0 .666-.24 1.16-.226.492-.653.812a2.8 2.8 0 0 1-.972.48 4.4 4.4 0 0 1-1.212.16m-1.666-4.41h3.051a2.3 2.3 0 0 0-.107-.746 1.3 1.3 0 0 0-.279-.506.9.9 0 0 0-.427-.28 1.6 1.6 0 0 0-.572-.093q-.52 0-.88.173a1.2 1.2 0 0 0-.533.533q-.186.36-.253.919"/><g filter="url(#d)"><rect width="283.866" height="37" x="78.607" y="35.549" fill="#fff" fill-opacity=".01" rx="8"/><rect width="283.866" height="37" x="78.607" y="35.549" fill="url(#e)" fill-opacity=".06" rx="8"/><rect width="282.866" height="36" x="79.107" y="36.049" stroke="url(#f)" stroke-opacity=".2" rx="7.5"/><path fill="#fff" d="M94.653 59.689q-1.02 0-1.806-.476a3.45 3.45 0 0 1-1.232-1.33q-.447-.84-.448-1.932 0-1.092.434-1.918.449-.84 1.246-1.302.799-.462 1.834-.462.994 0 1.722.434.743.434 1.134 1.218.406.785.406 1.848 0 .14-.014.266 0 .126-.028.28h-5.894v-.938h5.208l-.364.518q.001-1.289-.574-1.974-.56-.7-1.596-.7-1.064 0-1.722.742-.644.728-.644 1.974 0 1.274.644 2.044.659.756 1.75.756.688 0 1.204-.294.519-.309.756-.868h1.064a3.1 3.1 0 0 1-1.176 1.554q-.811.56-1.904.56m4.292-.14v-1.442h1.442v1.442zm5.769 3.01q-1.274 0-2.128-.602-.84-.588-1.022-1.568h1.064q.154.56.686.882.546.336 1.47.336 1.092 0 1.652-.602.56-.588.56-1.736v-1.526l.14.028a2.34 2.34 0 0 1-.952 1.302q-.714.476-1.694.476-.938 0-1.652-.448a3.07 3.07 0 0 1-1.106-1.274q-.392-.811-.392-1.89 0-1.092.406-1.918t1.134-1.274q.743-.462 1.722-.462 1.008 0 1.68.49.686.49.91 1.4l-.126.014v-1.778h1.05v6.86q0 1.526-.91 2.408t-2.492.882m.056-3.976q1.05 0 1.666-.728.616-.727.616-1.974 0-1.218-.616-1.918-.616-.714-1.666-.714-1.063 0-1.68.714-.602.715-.602 1.96 0 1.218.616 1.946.616.714 1.666.714m5.536.966v-1.442h1.442v1.442zm6.511 0v-10.08h1.148v10.08zm.588 0V58.54h6.16v1.008zm0-4.746v-1.008h5.656v1.008zm0-4.326v-1.008h6.048v1.008zm8.256 9.072v-10.08h1.12v10.08zm5.785.14q-1.316 0-2.1-.602-.783-.616-.896-1.736h1.078q.099.686.602 1.05.504.363 1.344.364.742 0 1.162-.28a.9.9 0 0 0 .42-.798.9.9 0 0 0-.238-.63q-.237-.28-.952-.462l-1.148-.294q-.98-.252-1.47-.77a1.8 1.8 0 0 1-.49-1.26q0-.924.686-1.456.686-.546 1.862-.546 1.162 0 1.89.56.729.56.826 1.554h-1.078q-.097-.575-.532-.882-.434-.309-1.148-.308-.686 0-1.064.266-.378.251-.378.728 0 .364.266.63.28.266.924.448l1.12.308q.994.266 1.498.812t.504 1.316q0 .938-.714 1.47-.714.518-1.974.518m4.305-.14v-7.14h1.12v7.14zm-.084-8.764v-1.316h1.288v1.316zm6.346 8.904q-1.023 0-1.806-.476a3.45 3.45 0 0 1-1.232-1.33q-.448-.84-.448-1.932t.434-1.918q.447-.84 1.246-1.302t1.834-.462q.993 0 1.722.434.741.434 1.134 1.218.406.785.406 1.848 0 .14-.014.266 0 .126-.028.28h-5.894v-.938h5.208l-.364.518q0-1.289-.574-1.974-.561-.7-1.596-.7-1.065 0-1.722.742-.644.728-.644 1.974 0 1.274.644 2.044.657.756 1.75.756.685 0 1.204-.294.518-.309.756-.868h1.064a3.13 3.13 0 0 1-1.176 1.554q-.812.56-1.904.56"/></g><defs><linearGradient id="a" x1="188.295" x2="188.295" y1=".884" y2="83.884" gradientUnits="userSpaceOnUse"><stop stop-color="#EFEFEF"/><stop offset="1" stop-color="#EFEFEF" stop-opacity=".58"/></linearGradient><linearGradient id="e" x1="220.54" x2="220.54" y1="35.549" y2="72.549" gradientUnits="userSpaceOnUse"><stop stop-color="#fff" stop-opacity="0"/><stop offset="1" stop-color="#fff"/></linearGradient><linearGradient id="f" x1="362.473" x2="78.607" y1="54.049" y2="54.049" gradientUnits="userSpaceOnUse"><stop stop-color="#fff" stop-opacity=".2"/><stop offset=".5" stop-color="#fff"/><stop offset="1" stop-color="#fff" stop-opacity=".2"/></linearGradient><filter id="c" width="48.2" height="48.2" x="16.517" y="21.784" color-interpolation-filters="sRGB" filterUnits="userSpaceOnUse"><feFlood flood-opacity="0" result="BackgroundImageFix"/><feBlend in="SourceGraphic" in2="BackgroundImageFix" result="shape"/><feGaussianBlur result="effect1_foregroundBlur_352_392" stdDeviation="8.8"/></filter><filter id="d" width="523.865" height="277" x="-41.393" y="-84.451" color-interpolation-filters="sRGB" filterUnits="userSpaceOnUse"><feFlood flood-opacity="0" result="BackgroundImageFix"/><feBlend in="SourceGraphic" in2="BackgroundImageFix" result="shape"/><feColorMatrix in="SourceAlpha" result="hardAlpha" values="0 0 0 0 0 0 0 0 0 0 0 0 0 0 0 0 0 0 127 0"/><feOffset dy="5"/><feGaussianBlur stdDeviation="4.5"/><feComposite in2="hardAlpha" k2="-1" k3="1" operator="arithmetic"/><feColorMatrix values="0 0 0 0 1 0 0 0 0 1 0 0 0 0 1 0 0 0 0.08 0"/><feBlend in2="shape" result="effect1_innerShadow_352_392"/></filter><clipPath id="b"><rect width="52" height="52" x="14.117" y="16.384" fill="#fff" rx="16"/></clipPath></defs></svg>