<svg width="308" height="85" viewBox="0 0 308 85" fill="none" xmlns="http://www.w3.org/2000/svg">
<rect x="0.106445" y="0.383789" width="307" height="84" rx="8.32639" fill="white" fill-opacity="0.05"/>
<rect x="0.522765" y="0.800108" width="306.167" height="83.1674" rx="7.91007" stroke="url(#paint0_linear_352_385)" stroke-opacity="0.2" stroke-width="0.832639"/>
<g filter="url(#filter0_d_352_385)">
<g clip-path="url(#clip0_352_385)">
<rect x="13.4287" y="23.3975" width="37.9727" height="37.9727" rx="11.6839" fill="white" fill-opacity="0.07" shape-rendering="crispEdges"/>
<path d="M41.9087 43.872C42.0679 44.3213 41.8326 44.8145 41.3833 44.9736C40.9228 45.1367 40.3908 45.4879 39.8271 45.9822C39.2725 46.4686 38.733 47.0528 38.2551 47.6257C37.7789 48.1966 37.3743 48.7435 37.0886 49.1482C36.9461 49.3502 36.8339 49.5156 36.7579 49.6296L36.6456 49.801C36.4787 50.0634 36.1836 50.216 35.873 50.2001C35.5624 50.1842 35.2843 50.0023 35.1452 49.7242C34.7649 48.9635 34.4237 48.6607 34.2518 48.546C34.179 48.4975 34.1299 48.4781 34.1103 48.4714C33.6715 48.4307 33.3281 48.0616 33.3281 47.6122C33.3281 47.1356 33.7145 46.7492 34.1911 46.7492C34.2623 46.7499 34.4388 46.7628 34.5766 46.8094C34.7559 46.8606 34.9724 46.952 35.2092 47.1099C35.4459 47.2677 35.6942 47.4858 35.9434 47.7843C36.2153 47.4125 36.5506 46.9745 36.9297 46.52C37.4417 45.9062 38.0444 45.2498 38.6891 44.6844C39.3249 44.1269 40.0493 43.615 40.8071 43.3466C41.2564 43.1875 41.7496 43.4227 41.9087 43.872Z" fill="#F9437C"/>
<path opacity="0.4" d="M31.1274 49.9844C29.5403 49.9844 28.2939 49.9844 27.3113 49.8734C26.3083 49.7601 25.495 49.5239 24.8189 48.9899C24.6165 48.8301 24.4289 48.6535 24.2583 48.4622C23.6833 47.8173 23.4266 47.0357 23.3043 46.0768C23.1855 45.1452 23.1855 43.9663 23.1855 42.4785V42.3875C23.1855 41.8906 23.1855 41.4281 23.19 40.9979C23.1924 40.76 23.1936 40.641 23.2693 40.5661C23.345 40.4912 23.4648 40.4912 23.7046 40.4912H41.2213C41.4611 40.4912 41.581 40.4912 41.6566 40.5661C41.7322 40.641 41.7335 40.76 41.736 40.9979C41.7373 41.1271 41.7382 41.2592 41.7389 41.3943C41.7403 41.6895 41.741 41.8372 41.6672 41.913C41.5934 41.9889 41.4103 41.9931 41.0441 42.0015C40.8209 42.0066 40.5947 42.0467 40.3728 42.1253C39.3922 42.4726 38.5235 43.1049 37.8335 43.7101C37.1213 44.3346 36.4711 45.0452 35.9336 45.6897C35.8865 45.7459 35.8631 45.7742 35.8404 45.7915C35.7741 45.8427 35.7036 45.8577 35.6221 45.8382C35.5944 45.8315 35.5576 45.8135 35.4842 45.7776C35.301 45.688 35.1236 45.6205 34.9556 45.571C34.6435 45.4716 34.33 45.4548 34.2016 45.4536L34.189 45.4535C32.9974 45.4535 32.0314 46.4195 32.0314 47.6111C32.0314 48.5783 32.6671 49.3959 33.544 49.6703L33.548 49.6715C33.5774 49.6808 33.5946 49.6861 33.6153 49.7105C33.7057 49.8167 33.6304 49.9844 33.4911 49.9844H31.1274Z" fill="#F9437C"/>
<path d="M33.8002 34.8818C35.3873 34.8818 36.6338 34.8818 37.6164 34.9928C38.6194 35.1061 39.4327 35.3424 40.1087 35.8763C40.3112 36.0361 40.4988 36.2126 40.6694 36.404C41.2444 37.0489 41.501 37.8305 41.6233 38.7894C41.6374 38.8998 41.6445 38.9549 41.6318 39.0034C41.6116 39.0809 41.5521 39.1484 41.4779 39.1782C41.4314 39.1969 41.3732 39.1969 41.2569 39.1969H23.6725C23.5562 39.1969 23.498 39.1969 23.4516 39.1782C23.3773 39.1484 23.3178 39.0809 23.2976 39.0034C23.285 38.9549 23.292 38.8998 23.3061 38.7894C23.4284 37.8305 23.6851 37.0489 24.26 36.404C24.4306 36.2126 24.6183 36.0361 24.8207 35.8763C25.4967 35.3424 26.31 35.1061 27.313 34.9928C28.2956 34.8818 29.5421 34.8818 31.1291 34.8818H33.8002Z" fill="#F9437C"/>
<g filter="url(#filter1_f_352_385)">
<circle cx="33.5103" cy="43.479" r="4.74658" fill="#F0538C"/>
</g>
</g>
</g>
<path d="M76.6901 39.9995H74.2415C74.1716 39.5979 74.0429 39.2422 73.8552 38.9323C73.6675 38.618 73.434 38.3518 73.1547 38.1336C72.8753 37.9153 72.5567 37.7516 72.1988 37.6425C71.8453 37.5291 71.4634 37.4723 71.0531 37.4723C70.3242 37.4723 69.6782 37.6556 69.1152 38.0223C68.5521 38.3845 68.1113 38.917 67.7927 39.6197C67.474 40.3181 67.3147 41.1714 67.3147 42.1796C67.3147 43.2053 67.474 44.0695 67.7927 44.7723C68.1156 45.4706 68.5565 45.9987 69.1152 46.3566C69.6782 46.7102 70.322 46.8869 71.0465 46.8869C71.4481 46.8869 71.8234 46.8346 72.1726 46.7298C72.5262 46.6207 72.8426 46.4614 73.1219 46.2519C73.4056 46.0424 73.6435 45.7849 73.8356 45.4793C74.032 45.1738 74.1673 44.8246 74.2415 44.4318L76.6901 44.4449C76.5984 45.0821 76.3998 45.6801 76.0943 46.2388C75.7931 46.7975 75.3981 47.2907 74.9093 47.7184C74.4204 48.1418 73.8487 48.4735 73.194 48.7136C72.5393 48.9493 71.8125 49.0671 71.0138 49.0671C69.8353 49.0671 68.7834 48.7943 67.8581 48.2487C66.9328 47.7031 66.2039 46.9153 65.6714 45.8852C65.1389 44.8552 64.8727 43.62 64.8727 42.1796C64.8727 40.7349 65.1411 39.4997 65.678 38.474C66.2148 37.4439 66.9459 36.6561 67.8712 36.1105C68.7965 35.5649 69.8441 35.2921 71.0138 35.2921C71.7602 35.2921 72.4541 35.3969 73.0958 35.6064C73.7374 35.8159 74.3091 36.1236 74.8111 36.5295C75.313 36.9311 75.7255 37.4243 76.0485 38.0092C76.3758 38.5897 76.5897 39.2531 76.6901 39.9995ZM85.2192 44.6544V38.8275H87.5892V48.8838H85.2912V47.0964H85.1865C84.9595 47.6595 84.5863 48.12 84.0669 48.4779C83.5519 48.8358 82.9168 49.0147 82.1618 49.0147C81.5027 49.0147 80.92 48.8685 80.4137 48.5761C79.9118 48.2793 79.5189 47.8494 79.2352 47.2863C78.9515 46.7189 78.8097 46.0336 78.8097 45.2305V38.8275H81.1797V44.8639C81.1797 45.5012 81.3543 46.0075 81.7035 46.3828C82.0526 46.7582 82.5109 46.9459 83.0783 46.9459C83.4275 46.9459 83.7658 46.8608 84.0931 46.6905C84.4205 46.5203 84.6889 46.2672 84.8984 45.9311C85.1123 45.5906 85.2192 45.1651 85.2192 44.6544ZM97.9745 41.4856L95.814 41.7213C95.7529 41.5031 95.6459 41.298 95.4932 41.1059C95.3448 40.9139 95.144 40.7589 94.8908 40.6411C94.6377 40.5232 94.3278 40.4643 93.9611 40.4643C93.4679 40.4643 93.0533 40.5712 92.7172 40.7851C92.3855 40.999 92.2218 41.2761 92.2262 41.6166C92.2218 41.909 92.3288 42.1469 92.547 42.3302C92.7696 42.5135 93.1362 42.6641 93.6469 42.782L95.3622 43.1486C96.3137 43.3537 97.0208 43.6789 97.4835 44.1241C97.9505 44.5693 98.1862 45.152 98.1905 45.8722C98.1862 46.505 98.0007 47.0637 97.634 47.5482C97.2718 48.0283 96.7676 48.4037 96.1217 48.6743C95.4757 48.9449 94.7337 49.0802 93.8957 49.0802C92.6648 49.0802 91.6741 48.8227 90.9233 48.3077C90.1726 47.7883 89.7252 47.0659 89.5812 46.1406L91.8923 45.918C91.997 46.3719 92.2196 46.7145 92.5601 46.9459C92.9005 47.1772 93.3435 47.2929 93.8891 47.2929C94.4522 47.2929 94.9039 47.1772 95.2444 46.9459C95.5892 46.7145 95.7616 46.4287 95.7616 46.0882C95.7616 45.8001 95.6503 45.5623 95.4277 45.3746C95.2094 45.1869 94.869 45.0429 94.4063 44.9425L92.691 44.5824C91.7264 44.3816 91.0128 44.0433 90.5501 43.5676C90.0875 43.0875 89.8583 42.4808 89.8627 41.7475C89.8583 41.1277 90.0264 40.5909 90.3668 40.137C90.7116 39.6787 91.1896 39.3251 91.8006 39.0763C92.416 38.8232 93.1253 38.6966 93.9284 38.6966C95.1069 38.6966 96.0344 38.9476 96.7109 39.4495C97.3918 39.9515 97.813 40.6302 97.9745 41.4856ZM105.166 38.8275V40.6607H99.3854V38.8275H105.166ZM100.813 36.4182H103.183V45.8591C103.183 46.1777 103.231 46.4221 103.327 46.5923C103.427 46.7582 103.558 46.8717 103.719 46.9328C103.881 46.9939 104.06 47.0244 104.256 47.0244C104.405 47.0244 104.54 47.0135 104.662 46.9917C104.789 46.9699 104.885 46.9502 104.95 46.9328L105.35 48.7856C105.223 48.8292 105.042 48.8772 104.806 48.9296C104.575 48.982 104.291 49.0125 103.955 49.0213C103.362 49.0387 102.827 48.9493 102.351 48.7528C101.875 48.5521 101.498 48.2422 101.219 47.8232C100.944 47.4042 100.808 46.8804 100.813 46.2519V36.4182ZM111.427 49.0802C110.445 49.0802 109.594 48.8641 108.874 48.432C108.153 47.9999 107.595 47.3954 107.198 46.6185C106.805 45.8416 106.608 44.9337 106.608 43.8949C106.608 42.8562 106.805 41.9461 107.198 41.1648C107.595 40.3836 108.153 39.7769 108.874 39.3448C109.594 38.9127 110.445 38.6966 111.427 38.6966C112.409 38.6966 113.26 38.9127 113.98 39.3448C114.701 39.7769 115.257 40.3836 115.65 41.1648C116.047 41.9461 116.246 42.8562 116.246 43.8949C116.246 44.9337 116.047 45.8416 115.65 46.6185C115.257 47.3954 114.701 47.9999 113.98 48.432C113.26 48.8641 112.409 49.0802 111.427 49.0802ZM111.44 47.1816C111.973 47.1816 112.418 47.0353 112.776 46.7429C113.134 46.4461 113.4 46.0489 113.574 45.5513C113.753 45.0538 113.843 44.4995 113.843 43.8884C113.843 43.273 113.753 42.7165 113.574 42.2189C113.4 41.717 113.134 41.3176 112.776 41.0208C112.418 40.724 111.973 40.5756 111.44 40.5756C110.895 40.5756 110.441 40.724 110.078 41.0208C109.72 41.3176 109.452 41.717 109.273 42.2189C109.098 42.7165 109.011 43.273 109.011 43.8884C109.011 44.4995 109.098 45.0538 109.273 45.5513C109.452 46.0489 109.72 46.4461 110.078 46.7429C110.441 47.0353 110.895 47.1816 111.44 47.1816ZM118.257 48.8838V38.8275H120.522V40.5363H120.64C120.85 39.9602 121.197 39.5106 121.681 39.1876C122.166 38.8603 122.744 38.6966 123.416 38.6966C124.097 38.6966 124.671 38.8625 125.138 39.1942C125.61 39.5215 125.941 39.9689 126.133 40.5363H126.238C126.461 39.9776 126.836 39.5324 127.364 39.2007C127.897 38.8646 128.527 38.6966 129.256 38.6966C130.182 38.6966 130.937 38.989 131.521 39.5739C132.106 40.1588 132.399 41.0121 132.399 42.1338V48.8838H130.022V42.5004C130.022 41.8763 129.856 41.4202 129.525 41.1321C129.193 40.8397 128.787 40.6935 128.307 40.6935C127.735 40.6935 127.288 40.8724 126.965 41.2303C126.646 41.5838 126.487 42.0443 126.487 42.6117V48.8838H124.163V42.4022C124.163 41.8828 124.005 41.4682 123.691 41.1583C123.381 40.8484 122.975 40.6935 122.473 40.6935C122.133 40.6935 121.823 40.7807 121.544 40.9553C121.264 41.1256 121.042 41.3678 120.876 41.6821C120.71 41.9919 120.627 42.3542 120.627 42.7689V48.8838H118.257ZM134.803 48.8838V38.8275H137.173V48.8838H134.803ZM135.995 37.4003C135.619 37.4003 135.296 37.2759 135.026 37.0271C134.755 36.774 134.62 36.4706 134.62 36.1171C134.62 35.7592 134.755 35.4558 135.026 35.207C135.296 34.9539 135.619 34.8273 135.995 34.8273C136.374 34.8273 136.697 34.9539 136.964 35.207C137.234 35.4558 137.37 35.7592 137.37 36.1171C137.37 36.4706 137.234 36.774 136.964 37.0271C136.697 37.2759 136.374 37.4003 135.995 37.4003ZM139.479 48.8838V47.378L144.665 40.8768V40.7917H139.65V38.8275H147.565V40.4447L142.629 46.8346V46.9197H147.735V48.8838H139.479ZM152.857 49.0867C152.219 49.0867 151.645 48.9733 151.135 48.7463C150.628 48.515 150.227 48.1745 149.93 47.725C149.638 47.2754 149.491 46.7211 149.491 46.062C149.491 45.4946 149.596 45.0254 149.806 44.6544C150.015 44.2834 150.301 43.9866 150.663 43.764C151.026 43.5414 151.434 43.3734 151.888 43.2599C152.346 43.142 152.82 43.0569 153.308 43.0046C153.898 42.9434 154.376 42.8889 154.742 42.8409C155.109 42.7885 155.375 42.7099 155.541 42.6052C155.711 42.4961 155.796 42.328 155.796 42.1011V42.0618C155.796 41.5686 155.65 41.1867 155.358 40.916C155.065 40.6454 154.644 40.5101 154.094 40.5101C153.514 40.5101 153.053 40.6367 152.713 40.8899C152.377 41.143 152.15 41.442 152.032 41.7868L149.819 41.4725C149.993 40.8615 150.281 40.3508 150.683 39.9405C151.085 39.5259 151.576 39.216 152.156 39.0109C152.737 38.8014 153.378 38.6966 154.081 38.6966C154.565 38.6966 155.048 38.7533 155.528 38.8668C156.008 38.9803 156.447 39.168 156.844 39.4299C157.241 39.6874 157.56 40.0387 157.8 40.4839C158.044 40.9291 158.166 41.4856 158.166 42.1534V48.8838H155.888V47.5024H155.809C155.665 47.7817 155.462 48.0436 155.2 48.288C154.943 48.5281 154.618 48.7223 154.225 48.8707C153.836 49.0147 153.38 49.0867 152.857 49.0867ZM153.472 47.3452C153.948 47.3452 154.36 47.2514 154.709 47.0637C155.059 46.8717 155.327 46.6185 155.515 46.3043C155.707 45.99 155.803 45.6474 155.803 45.2764V44.0914C155.729 44.1525 155.602 44.2092 155.423 44.2616C155.248 44.314 155.052 44.3598 154.834 44.3991C154.616 44.4384 154.4 44.4733 154.186 44.5038C153.972 44.5344 153.786 44.5606 153.629 44.5824C153.276 44.6304 152.959 44.709 152.68 44.8181C152.401 44.9272 152.18 45.08 152.019 45.2764C151.857 45.4684 151.776 45.7172 151.776 46.0227C151.776 46.4592 151.936 46.7887 152.254 47.0113C152.573 47.2339 152.979 47.3452 153.472 47.3452ZM160.654 48.8838V35.4755H163.024V40.4905H163.122C163.245 40.2461 163.417 39.9864 163.64 39.7114C163.862 39.4321 164.163 39.1942 164.543 38.9978C164.923 38.797 165.407 38.6966 165.997 38.6966C166.773 38.6966 167.474 38.8952 168.098 39.2924C168.727 39.6852 169.224 40.2679 169.591 41.0404C169.962 41.8086 170.147 42.7514 170.147 43.8688C170.147 44.973 169.966 45.9114 169.604 46.684C169.242 47.4565 168.748 48.0458 168.124 48.4517C167.5 48.8576 166.793 49.0606 166.003 49.0606C165.427 49.0606 164.949 48.9645 164.569 48.7725C164.19 48.5804 163.884 48.3491 163.653 48.0785C163.426 47.8035 163.249 47.5438 163.122 47.2994H162.985V48.8838H160.654ZM162.978 43.8557C162.978 44.506 163.07 45.0756 163.253 45.5644C163.441 46.0533 163.709 46.4352 164.059 46.7102C164.412 46.9808 164.84 47.1161 165.342 47.1161C165.866 47.1161 166.304 46.9764 166.658 46.6971C167.011 46.4134 167.278 46.0271 167.457 45.5383C167.64 45.045 167.731 44.4842 167.731 43.8557C167.731 43.2315 167.642 42.6772 167.463 42.1927C167.284 41.7082 167.018 41.3285 166.664 41.0535C166.311 40.7786 165.87 40.6411 165.342 40.6411C164.836 40.6411 164.406 40.7742 164.052 41.0404C163.699 41.3067 163.43 41.6799 163.247 42.16C163.068 42.6401 162.978 43.2053 162.978 43.8557ZM174.532 35.4755V48.8838H172.162V35.4755H174.532ZM181.421 49.0802C180.413 49.0802 179.542 48.8707 178.809 48.4517C178.08 48.0283 177.519 47.4303 177.126 46.6578C176.734 45.8809 176.537 44.9665 176.537 43.9146C176.537 42.8802 176.734 41.9723 177.126 41.191C177.524 40.4054 178.078 39.7943 178.789 39.3579C179.501 38.917 180.337 38.6966 181.297 38.6966C181.917 38.6966 182.502 38.797 183.052 38.9978C183.606 39.1942 184.095 39.4997 184.518 39.9144C184.946 40.329 185.282 40.8571 185.526 41.4987C185.771 42.136 185.893 42.8954 185.893 43.7771V44.5038H177.65V42.9063H183.621C183.617 42.4524 183.519 42.0487 183.327 41.6951C183.134 41.3372 182.866 41.0557 182.521 40.8506C182.181 40.6454 181.784 40.5429 181.33 40.5429C180.845 40.5429 180.42 40.6607 180.053 40.8964C179.686 41.1277 179.4 41.4333 179.195 41.813C178.995 42.1884 178.892 42.6008 178.888 43.0504V44.4449C178.888 45.0298 178.995 45.5317 179.208 45.9507C179.422 46.3654 179.721 46.684 180.105 46.9066C180.489 47.1248 180.939 47.2339 181.454 47.2339C181.799 47.2339 182.111 47.1859 182.39 47.0899C182.67 46.9895 182.912 46.8433 183.117 46.6513C183.322 46.4592 183.477 46.2213 183.582 45.9376L185.795 46.1864C185.655 46.7713 185.389 47.2819 184.996 47.7184C184.608 48.1505 184.11 48.4866 183.503 48.7267C182.897 48.9624 182.203 49.0802 181.421 49.0802ZM204.557 42.1796C204.557 43.6243 204.286 44.8617 203.745 45.8918C203.208 46.9175 202.475 47.7031 201.545 48.2487C200.62 48.7943 199.57 49.0671 198.396 49.0671C197.222 49.0671 196.17 48.7943 195.24 48.2487C194.315 47.6988 193.582 46.9109 193.041 45.8852C192.504 44.8552 192.235 43.62 192.235 42.1796C192.235 40.7349 192.504 39.4997 193.041 38.474C193.582 37.4439 194.315 36.6561 195.24 36.1105C196.17 35.5649 197.222 35.2921 198.396 35.2921C199.57 35.2921 200.62 35.5649 201.545 36.1105C202.475 36.6561 203.208 37.4439 203.745 38.474C204.286 39.4997 204.557 40.7349 204.557 42.1796ZM202.115 42.1796C202.115 41.1627 201.956 40.305 201.637 39.6066C201.323 38.9039 200.886 38.3736 200.328 38.0157C199.769 37.6534 199.125 37.4723 198.396 37.4723C197.667 37.4723 197.023 37.6534 196.465 38.0157C195.906 38.3736 195.467 38.9039 195.149 39.6066C194.835 40.305 194.677 41.1627 194.677 42.1796C194.677 43.1966 194.835 44.0564 195.149 44.7592C195.467 45.4575 195.906 45.9878 196.465 46.3501C197.023 46.708 197.667 46.8869 198.396 46.8869C199.125 46.8869 199.769 46.708 200.328 46.3501C200.886 45.9878 201.323 45.4575 201.637 44.7592C201.956 44.0564 202.115 43.1966 202.115 42.1796ZM206.853 48.8838V35.4755H209.223V40.4905H209.322C209.444 40.2461 209.616 39.9864 209.839 39.7114C210.061 39.4321 210.362 39.1942 210.742 38.9978C211.122 38.797 211.606 38.6966 212.196 38.6966C212.973 38.6966 213.673 38.8952 214.297 39.2924C214.926 39.6852 215.423 40.2679 215.79 41.0404C216.161 41.8086 216.346 42.7514 216.346 43.8688C216.346 44.973 216.165 45.9114 215.803 46.684C215.441 47.4565 214.948 48.0458 214.323 48.4517C213.699 48.8576 212.992 49.0606 212.202 49.0606C211.626 49.0606 211.148 48.9645 210.768 48.7725C210.389 48.5804 210.083 48.3491 209.852 48.0785C209.625 47.8035 209.448 47.5438 209.322 47.2994H209.184V48.8838H206.853ZM209.177 43.8557C209.177 44.506 209.269 45.0756 209.452 45.5644C209.64 46.0533 209.909 46.4352 210.258 46.7102C210.611 46.9808 211.039 47.1161 211.541 47.1161C212.065 47.1161 212.503 46.9764 212.857 46.6971C213.21 46.4134 213.477 46.0271 213.656 45.5383C213.839 45.045 213.931 44.4842 213.931 43.8557C213.931 43.2315 213.841 42.6772 213.662 42.1927C213.483 41.7082 213.217 41.3285 212.863 41.0535C212.51 40.7786 212.069 40.6411 211.541 40.6411C211.035 40.6411 210.605 40.7742 210.251 41.0404C209.898 41.3067 209.629 41.6799 209.446 42.16C209.267 42.6401 209.177 43.2053 209.177 43.8557ZM218.361 38.8275H220.731V49.4599C220.731 50.1845 220.594 50.7824 220.319 51.2538C220.044 51.7252 219.647 52.0766 219.127 52.3079C218.608 52.5392 217.977 52.6549 217.235 52.6549C217.148 52.6549 217.067 52.6527 216.993 52.6483C216.919 52.6483 216.838 52.6462 216.751 52.6418V50.7104C216.816 50.7148 216.875 50.717 216.928 50.717C216.98 50.7213 217.034 50.7235 217.091 50.7235C217.545 50.7235 217.87 50.6122 218.067 50.3896C218.263 50.1714 218.361 49.8506 218.361 49.4272V38.8275ZM219.54 37.4003C219.16 37.4003 218.835 37.2759 218.564 37.0271C218.298 36.774 218.165 36.4706 218.165 36.1171C218.165 35.7592 218.298 35.4558 218.564 35.207C218.835 34.9539 219.16 34.8273 219.54 34.8273C219.915 34.8273 220.236 34.9539 220.502 35.207C220.773 35.4558 220.908 35.7592 220.908 36.1171C220.908 36.4706 220.773 36.774 220.502 37.0271C220.236 37.2759 219.915 37.4003 219.54 37.4003ZM227.62 49.0802C226.612 49.0802 225.741 48.8707 225.008 48.4517C224.279 48.0283 223.718 47.4303 223.326 46.6578C222.933 45.8809 222.736 44.9665 222.736 43.9146C222.736 42.8802 222.933 41.9723 223.326 41.191C223.723 40.4054 224.277 39.7943 224.989 39.3579C225.7 38.917 226.536 38.6966 227.496 38.6966C228.116 38.6966 228.701 38.797 229.251 38.9978C229.805 39.1942 230.294 39.4997 230.717 39.9144C231.145 40.329 231.481 40.8571 231.725 41.4987C231.97 42.136 232.092 42.8954 232.092 43.7771V44.5038H223.849V42.9063H229.82C229.816 42.4524 229.718 42.0487 229.526 41.6951C229.334 41.3372 229.065 41.0557 228.72 40.8506C228.38 40.6454 227.983 40.5429 227.529 40.5429C227.044 40.5429 226.619 40.6607 226.252 40.8964C225.885 41.1277 225.6 41.4333 225.394 41.813C225.194 42.1884 225.091 42.6008 225.087 43.0504V44.4449C225.087 45.0298 225.194 45.5317 225.408 45.9507C225.621 46.3654 225.92 46.684 226.305 46.9066C226.689 47.1248 227.138 47.2339 227.653 47.2339C227.998 47.2339 228.31 47.1859 228.589 47.0899C228.869 46.9895 229.111 46.8433 229.316 46.6513C229.521 46.4592 229.676 46.2213 229.781 45.9376L231.994 46.1864C231.854 46.7713 231.588 47.2819 231.195 47.7184C230.807 48.1505 230.309 48.4866 229.702 48.7267C229.096 48.9624 228.402 49.0802 227.62 49.0802ZM238.484 49.0802C237.48 49.0802 236.618 48.8598 235.898 48.4189C235.182 47.9781 234.63 47.3692 234.241 46.5923C233.857 45.811 233.665 44.9119 233.665 43.8949C233.665 42.8736 233.861 41.9723 234.254 41.191C234.647 40.4054 235.201 39.7943 235.917 39.3579C236.637 38.917 237.488 38.6966 238.471 38.6966C239.287 38.6966 240.009 38.8472 240.638 39.1484C241.27 39.4451 241.775 39.8663 242.15 40.4119C242.525 40.9531 242.739 41.586 242.792 42.3106H240.526C240.435 41.8261 240.216 41.4224 239.872 41.0994C239.531 40.772 239.075 40.6083 238.503 40.6083C238.019 40.6083 237.593 40.7393 237.227 41.0012C236.86 41.2587 236.574 41.6297 236.369 42.1142C236.168 42.5986 236.068 43.1791 236.068 43.8557C236.068 44.5409 236.168 45.1302 236.369 45.6234C236.57 46.1122 236.851 46.4898 237.214 46.756C237.58 47.0179 238.01 47.1488 238.503 47.1488C238.852 47.1488 239.165 47.0834 239.439 46.9524C239.719 46.8171 239.952 46.6229 240.14 46.3697C240.328 46.1166 240.456 45.8089 240.526 45.4466H242.792C242.735 46.158 242.525 46.7887 242.163 47.3387C241.801 47.8843 241.308 48.312 240.683 48.6219C240.059 48.9274 239.326 49.0802 238.484 49.0802ZM249.759 38.8275V40.6607H243.978V38.8275H249.759ZM245.405 36.4182H247.775V45.8591C247.775 46.1777 247.824 46.4221 247.92 46.5923C248.02 46.7582 248.151 46.8717 248.312 46.9328C248.474 46.9939 248.653 47.0244 248.849 47.0244C248.998 47.0244 249.133 47.0135 249.255 46.9917C249.382 46.9699 249.478 46.9502 249.543 46.9328L249.943 48.7856C249.816 48.8292 249.635 48.8772 249.399 48.9296C249.168 48.982 248.884 49.0125 248.548 49.0213C247.954 49.0387 247.42 48.9493 246.944 48.7528C246.468 48.5521 246.091 48.2422 245.811 47.8232C245.536 47.4042 245.401 46.8804 245.405 46.2519V36.4182ZM251.741 48.8838V38.8275H254.111V48.8838H251.741ZM252.933 37.4003C252.558 37.4003 252.235 37.2759 251.964 37.0271C251.693 36.774 251.558 36.4706 251.558 36.1171C251.558 35.7592 251.693 35.4558 251.964 35.207C252.235 34.9539 252.558 34.8273 252.933 34.8273C253.313 34.8273 253.636 34.9539 253.902 35.207C254.173 35.4558 254.308 35.7592 254.308 36.1171C254.308 36.4706 254.173 36.774 253.902 37.0271C253.636 37.2759 253.313 37.4003 252.933 37.4003ZM265.531 38.8275L261.95 48.8838H259.331L255.75 38.8275H258.277L260.588 46.2977H260.693L263.01 38.8275H265.531ZM271.281 49.0802C270.273 49.0802 269.402 48.8707 268.669 48.4517C267.94 48.0283 267.379 47.4303 266.986 46.6578C266.593 45.8809 266.397 44.9665 266.397 43.9146C266.397 42.8802 266.593 41.9723 266.986 41.191C267.383 40.4054 267.938 39.7943 268.649 39.3579C269.361 38.917 270.196 38.6966 271.157 38.6966C271.776 38.6966 272.361 38.797 272.911 38.9978C273.466 39.1942 273.954 39.4997 274.378 39.9144C274.805 40.329 275.142 40.8571 275.386 41.4987C275.63 42.136 275.753 42.8954 275.753 43.7771V44.5038H267.51V42.9063H273.481C273.476 42.4524 273.378 42.0487 273.186 41.6951C272.994 41.3372 272.726 41.0557 272.381 40.8506C272.04 40.6454 271.643 40.5429 271.189 40.5429C270.705 40.5429 270.279 40.6607 269.913 40.8964C269.546 41.1277 269.26 41.4333 269.055 41.813C268.854 42.1884 268.752 42.6008 268.747 43.0504V44.4449C268.747 45.0298 268.854 45.5317 269.068 45.9507C269.282 46.3654 269.581 46.684 269.965 46.9066C270.349 47.1248 270.799 47.2339 271.314 47.2339C271.659 47.2339 271.971 47.1859 272.25 47.0899C272.529 46.9895 272.772 46.8433 272.977 46.6513C273.182 46.4592 273.337 46.2213 273.442 45.9376L275.654 46.1864C275.515 46.7713 275.249 47.2819 274.856 47.7184C274.467 48.1505 273.97 48.4866 273.363 48.7267C272.756 48.9624 272.062 49.0802 271.281 49.0802ZM285.706 41.4856L283.545 41.7213C283.484 41.5031 283.377 41.298 283.224 41.1059C283.076 40.9139 282.875 40.7589 282.622 40.6411C282.369 40.5232 282.059 40.4643 281.692 40.4643C281.199 40.4643 280.785 40.5712 280.448 40.7851C280.117 40.999 279.953 41.2761 279.957 41.6166C279.953 41.909 280.06 42.1469 280.278 42.3302C280.501 42.5135 280.867 42.6641 281.378 42.782L283.093 43.1486C284.045 43.3537 284.752 43.6789 285.215 44.1241C285.682 44.5693 285.917 45.152 285.922 45.8722C285.917 46.505 285.732 47.0637 285.365 47.5482C285.003 48.0283 284.499 48.4037 283.853 48.6743C283.207 48.9449 282.465 49.0802 281.627 49.0802C280.396 49.0802 279.405 48.8227 278.655 48.3077C277.904 47.7883 277.456 47.0659 277.312 46.1406L279.624 45.918C279.728 46.3719 279.951 46.7145 280.291 46.9459C280.632 47.1772 281.075 47.2929 281.62 47.2929C282.183 47.2929 282.635 47.1772 282.976 46.9459C283.32 46.7145 283.493 46.4287 283.493 46.0882C283.493 45.8001 283.382 45.5623 283.159 45.3746C282.941 45.1869 282.6 45.0429 282.138 44.9425L280.422 44.5824C279.458 44.3816 278.744 44.0433 278.281 43.5676C277.819 43.0875 277.59 42.4808 277.594 41.7475C277.59 41.1277 277.758 40.5909 278.098 40.137C278.443 39.6787 278.921 39.3251 279.532 39.0763C280.147 38.8232 280.857 38.6966 281.66 38.6966C282.838 38.6966 283.766 38.9476 284.442 39.4495C285.123 39.9515 285.544 40.6302 285.706 41.4856Z" fill="white"/>
<defs>
<filter id="filter0_d_352_385" x="12.6985" y="22.6672" width="39.4331" height="39.4331" filterUnits="userSpaceOnUse" color-interpolation-filters="sRGB">
<feFlood flood-opacity="0" result="BackgroundImageFix"/>
<feColorMatrix in="SourceAlpha" type="matrix" values="0 0 0 0 0 0 0 0 0 0 0 0 0 0 0 0 0 0 127 0" result="hardAlpha"/>
<feMorphology radius="0.730243" operator="dilate" in="SourceAlpha" result="effect1_dropShadow_352_385"/>
<feOffset/>
<feComposite in2="hardAlpha" operator="out"/>
<feColorMatrix type="matrix" values="0 0 0 0 0.176471 0 0 0 0 0.180392 0 0 0 0 0.282353 0 0 0 1 0"/>
<feBlend mode="normal" in2="BackgroundImageFix" result="effect1_dropShadow_352_385"/>
<feBlend mode="normal" in="SourceGraphic" in2="effect1_dropShadow_352_385" result="shape"/>
</filter>
<filter id="filter1_f_352_385" x="15.9114" y="25.8801" width="35.1977" height="35.1977" filterUnits="userSpaceOnUse" color-interpolation-filters="sRGB">
<feFlood flood-opacity="0" result="BackgroundImageFix"/>
<feBlend mode="normal" in="SourceGraphic" in2="BackgroundImageFix" result="shape"/>
<feGaussianBlur stdDeviation="6.42614" result="effect1_foregroundBlur_352_385"/>
</filter>
<linearGradient id="paint0_linear_352_385" x1="153.606" y1="0.383789" x2="153.606" y2="84.3838" gradientUnits="userSpaceOnUse">
<stop stop-color="#EFEFEF"/>
<stop offset="1" stop-color="#EFEFEF" stop-opacity="0.58"/>
</linearGradient>
<clipPath id="clip0_352_385">
<rect x="13.4287" y="23.3975" width="37.9727" height="37.9727" rx="11.6839" fill="white"/>
</clipPath>
</defs>
</svg>
