<svg xmlns="http://www.w3.org/2000/svg" width="376" height="85" fill="none"><rect width="374.688" height="84" x=".795" y=".384" fill="#fff" fill-opacity=".05" rx="8.326"/><rect width="373.855" height="83.167" x="1.211" y=".8" stroke="url(#a)" stroke-opacity=".2" stroke-width=".833" rx="7.91"/><g filter="url(#b)"><rect width="348.043" height="57.356" x="14.117" y="13.706" fill="#fff" fill-opacity=".01" rx="8"/><rect width="348.043" height="57.356" x="14.117" y="13.706" fill="url(#c)" fill-opacity=".06" rx="8"/><rect width="347.043" height="56.356" x="14.617" y="14.206" stroke="url(#d)" stroke-opacity=".2" rx="7.5"/><path fill="#F60" d="M36.858 50.004c1.603-2.006 5.26-6.868 5.26-9.6 0-3.312-2.688-6-6-6-3.313 0-6 2.688-6 6 0 2.731 3.655 7.594 5.259 9.6a.944.944 0 0 0 1.48 0m-.74-11.6a2 2 0 1 1 0 4 2 2 0 0 1 0-4"/><path fill="#fff" d="m54.621 47.884 3.892-10.08h1.008l-3.794 10.08zm8.008 0-3.794-10.08h1.078l3.892 10.08zm-6.076-4.074h5.264v1.008h-5.264zm13.708 4.074v-1.666l.14.042a2.4 2.4 0 0 1-.98 1.288q-.699.476-1.68.476-.966 0-1.694-.462a3.15 3.15 0 0 1-1.12-1.288q-.392-.826-.392-1.932 0-1.12.406-1.96t1.134-1.302 1.708-.462q1.008 0 1.694.49t.938 1.386l-.224.028v-4.718h1.12v10.08zm-2.31-.84q1.078 0 1.68-.728.615-.742.616-2.016 0-1.246-.616-1.974-.615-.728-1.68-.728t-1.666.728q-.602.727-.602 2.016 0 1.26.602 1.988.603.714 1.666.714m10.8.84v-1.666l.14.042q-.266.811-.98 1.288-.699.476-1.68.476-.965 0-1.694-.462a3.15 3.15 0 0 1-1.12-1.288q-.391-.826-.392-1.932 0-1.12.406-1.96t1.135-1.302 1.707-.462q1.008 0 1.695.49.686.49.938 1.386l-.225.028v-4.718h1.12v10.08zm-2.31-.84q1.08 0 1.68-.728.617-.742.617-2.016 0-1.246-.617-1.974-.615-.728-1.68-.728-1.063 0-1.666.728-.601.727-.602 2.016 0 1.26.602 1.988.603.714 1.666.714m9.025 3.71 1.597-3.71.251-.392 2.339-5.908H90.8l-4.144 10.01zm1.723-2.8-3.206-7.21h1.231l2.758 6.454zm7.78.07q-1.05 0-1.848-.49a3.4 3.4 0 0 1-1.246-1.33q-.435-.855-.434-1.918 0-1.079.448-1.904.449-.826 1.232-1.302.798-.476 1.848-.476 1.064 0 1.848.476.798.476 1.232 1.302.448.825.448 1.904 0 1.065-.448 1.918-.435.84-1.232 1.33-.785.49-1.848.49m0-.952q.728 0 1.26-.35a2.4 2.4 0 0 0 .826-.994q.294-.63.294-1.456 0-1.233-.658-1.974-.645-.742-1.722-.742-1.064 0-1.722.742-.658.741-.658 1.974 0 .826.294 1.456t.826.994q.546.35 1.26.35m7.532.952a2.7 2.7 0 0 1-1.246-.28 2.17 2.17 0 0 1-.854-.812 2.4 2.4 0 0 1-.308-1.218v-4.97h1.12v4.676q0 .811.392 1.218.405.405 1.148.406.671 0 1.19-.308a2.17 2.17 0 0 0 .812-.854q.308-.56.308-1.274l.182 1.694a2.77 2.77 0 0 1-1.092 1.26 3.07 3.07 0 0 1-1.652.462m2.632-.14v-1.68h-.07v-5.46h1.12v7.14zm3.288 0v-7.14h1.05v1.82h.07v5.32zm1.12-3.724-.182-1.694q.252-.91.896-1.386a2.43 2.43 0 0 1 1.484-.476q.35 0 .476.056v1.078a.6.6 0 0 0-.196-.028 3 3 0 0 0-.308-.014q-1.065 0-1.624.644-.546.63-.546 1.82m6.933 3.724v-10.08h1.12v10.08zm6.331.14q-1.05 0-1.848-.49a3.4 3.4 0 0 1-1.246-1.33q-.434-.855-.434-1.918 0-1.079.448-1.904.447-.826 1.232-1.302.798-.476 1.848-.476 1.064 0 1.848.476.797.476 1.232 1.302.448.825.448 1.904 0 1.065-.448 1.918-.435.84-1.232 1.33-.784.49-1.848.49m0-.952q.727 0 1.26-.35.531-.364.826-.994t.294-1.456q0-1.233-.658-1.974-.645-.742-1.722-.742-1.065 0-1.722.742-.658.741-.658 1.974 0 .826.294 1.456t.826.994q.546.35 1.26.35m8.036.952q-.98 0-1.75-.476a3.5 3.5 0 0 1-1.204-1.33q-.434-.855-.434-1.932 0-1.079.434-1.904.447-.826 1.204-1.302a3.23 3.23 0 0 1 1.736-.476 3.2 3.2 0 0 1 1.428.308q.644.308 1.05.882.42.56.532 1.316h-1.036a1.95 1.95 0 0 0-.644-1.12q-.504-.434-1.302-.434-.686 0-1.19.336a2.2 2.2 0 0 0-.784.952q-.28.615-.28 1.442 0 .825.28 1.456.28.63.784.98.517.35 1.204.35.77 0 1.288-.42.517-.435.658-1.12h1.036a3 3 0 0 1-.56 1.316 2.9 2.9 0 0 1-1.05.868q-.63.308-1.4.308m8.991-.14a4 4 0 0 1-.084-.546 18 18 0 0 1-.014-.784h-.07v-3.416q0-.812-.378-1.19-.364-.392-1.19-.392-.811 0-1.302.336-.476.321-.532.924h-1.078q.07-1.035.868-1.624.798-.588 2.086-.588 1.33 0 1.974.63t.644 1.89v3.43q0 .308.042.644.042.322.112.686zm-2.45.14q-1.105 0-1.764-.532-.644-.546-.644-1.484t.644-1.456 1.876-.728l2.492-.42v.924l-2.324.364q-.784.126-1.19.42-.406.293-.406.854 0 .547.364.826.378.28 1.106.28.938 0 1.526-.42.602-.435.602-1.12l.182.994a1.92 1.92 0 0 1-.882 1.106q-.644.392-1.582.392m8.198-.014q-1.19 0-1.736-.532-.532-.546-.532-1.568v-6.832l1.12-.42v7.238q0 .601.308.882.308.28 1.008.28.28 0 .476-.028.21-.041.336-.098v.952a1.6 1.6 0 0 1-.406.084q-.252.042-.574.042m-3.738-6.314v-.952h4.718v.952zm6.159 6.188v-7.14h1.12v7.14zm-.084-8.764v-1.316h1.288v1.316zm6.388 8.904q-1.05 0-1.848-.49a3.4 3.4 0 0 1-1.246-1.33q-.435-.855-.434-1.918 0-1.079.448-1.904.447-.826 1.232-1.302.798-.476 1.848-.476 1.063 0 1.848.476.798.476 1.232 1.302.448.825.448 1.904 0 1.065-.448 1.918-.434.84-1.232 1.33-.785.49-1.848.49m0-.952q.728 0 1.26-.35.531-.364.826-.994t.294-1.456q0-1.233-.658-1.974-.645-.742-1.722-.742-1.065 0-1.722.742-.658.741-.658 1.974 0 .826.294 1.456t.826.994q.546.35 1.26.35m5.208.812v-7.14h1.05v1.68h.07v5.46zm5.11 0v-4.676q0-.811-.406-1.218-.406-.405-1.204-.406-.7 0-1.246.308-.532.308-.84.854-.294.545-.294 1.274l-.182-1.694a2.84 2.84 0 0 1 1.106-1.26 3.2 3.2 0 0 1 1.708-.462q1.12 0 1.792.644.686.63.686 1.666v4.97z"/></g><defs><linearGradient id="a" x1="188.139" x2="188.139" y1=".384" y2="84.384" gradientUnits="userSpaceOnUse"><stop stop-color="#EFEFEF"/><stop offset="1" stop-color="#EFEFEF" stop-opacity=".58"/></linearGradient><linearGradient id="c" x1="188.139" x2="188.139" y1="13.706" y2="71.062" gradientUnits="userSpaceOnUse"><stop stop-color="#fff" stop-opacity="0"/><stop offset="1" stop-color="#fff"/></linearGradient><linearGradient id="d" x1="362.16" x2="14.117" y1="42.384" y2="42.384" gradientUnits="userSpaceOnUse"><stop stop-color="#fff" stop-opacity=".2"/><stop offset=".5" stop-color="#fff"/><stop offset="1" stop-color="#fff" stop-opacity=".2"/></linearGradient><filter id="b" width="588.043" height="297.355" x="-105.883" y="-106.294" color-interpolation-filters="sRGB" filterUnits="userSpaceOnUse"><feFlood flood-opacity="0" result="BackgroundImageFix"/><feBlend in="SourceGraphic" in2="BackgroundImageFix" result="shape"/><feColorMatrix in="SourceAlpha" result="hardAlpha" values="0 0 0 0 0 0 0 0 0 0 0 0 0 0 0 0 0 0 127 0"/><feOffset dy="5"/><feGaussianBlur stdDeviation="4.5"/><feComposite in2="hardAlpha" k2="-1" k3="1" operator="arithmetic"/><feColorMatrix values="0 0 0 0 1 0 0 0 0 1 0 0 0 0 1 0 0 0 0.08 0"/><feBlend in2="shape" result="effect1_innerShadow_352_403"/></filter></defs></svg>